<?xml version="1.0"?>
<svg xmlns="http://www.w3.org/2000/svg" version="1.2" baseProfile="tiny" width="800" height="406" viewBox="0 0 800 406" stroke-linecap="round" stroke-linejoin="round">
<g id="PROVINCE1">
<path d="M 671.88 391.51 673.22 389.92 673.03 389.41 674.74 387.07 676.46 386.71 677.97 385.79 678.71 384.67 680.53 383.27 679.65 382.13 680.18 380.26 679.2 378.09 679.85 377.73 680.4 375.71 681.5 375.05 682.53 373.7 682.55 370.69 681.59 369.9 680.38 370.91 679.68 369.53 677.73 367.24 676.3 367.61 674.66 366.77 673.9 365.87 673.6 364.24 672.33 364.96 672.51 366.91 670.48 368.77 670 369.58 668.66 369.48 666.42 371.57 665.14 369.67 663.96 369.37 662.98 370 661.67 369.52 658.12 371.27 656.03 370.6 655.64 369.6 652.44 370.1 651.07 371.72 649 371.4 647.63 371.58 645.43 370.91 644.78 371.71 642.16 370.78 640.93 371.02 640.41 369.55 639.48 368.75 639.52 366.89 637.49 366.15 639.84 363.34 637.91 361.92 636.99 362.74 635.34 362.06 637.49 359.53 637.37 357.51 634.19 357.84 634.09 356.83 632.89 356.36 632.72 355.45 630.48 354.12 630.15 352.37 628.05 352.39 625.24 350.92 623.81 350.49 620.78 350.36 619.94 352.73 619.08 353.87 616.67 353.11 614.04 353.21 612.53 352.55 609.85 352.88 607.47 354.71 605.56 353.06 604.73 352.95 600.83 351.2 599.26 348.76 602.08 350.75 605.22 351.87 605.28 350.77 606.98 350.61 608.72 349.29 609.19 348.4 610.36 347.91 610.83 346.54 614.29 344.92 617.86 344.83 619 343.43 619.84 341.01 619.93 339.12 620.45 338.28 619.22 337.67 618.89 336.1 617.27 335.04 618.38 333.13 618.05 331.15 615.07 330.59 615.68 329.88 616.71 327.16 619.35 327.56 620.33 325.14 621.48 323.73 620.52 322.53 619.41 322.49 618.43 321.65 617.08 321.56 616.59 320.77 616.69 318.92 614.23 318.68 613.27 318.12 608.46 316.1 608.32 316.54 605.73 318.1 603.3 316.9 603.99 315.51 606.81 313.11 606.59 311.72 605.66 309.99 604.73 309.7 604.41 308.64 604.76 305.83 605.3 305.05 605.59 302.37 606.35 301.8 606.91 300.38 608.35 298.67 609.15 296.63 611.9 295.24 612.22 294.4 614.2 293.1 616.42 290.4 618.06 289.93 618.41 288.47 619.6 287.27 620.15 285.69 621.27 285.26 622.3 284.2 624.23 283.41 624.42 282.73 625.88 281.56 629.3 280.89 631.54 281.22 632.26 280.57 632.96 278.62 634.84 277.62 634.94 276.73 636 275.67 636.22 272.61 637.27 271.7 638.44 267.93 639.4 267.41 638.54 265.86 639.02 263.42 638.85 262.57 636.23 261.51 637.57 257.36 637.3 255.29 637.63 254.58 637.51 252 636.96 250.18 635.65 249.08 634.6 249.26 633.8 247.61 634.11 246.15 633.53 244.86 634.45 241.71 635.09 240.98 635.85 238.38 637.06 238.39 638.68 236.6 638.03 235.77 638.8 234.11 638.38 232.86 639.56 232.28 642.32 233.37 642.33 234.78 642.89 235.91 645.48 236.43 647.75 235.42 648.07 234.05 650.8 232.71 655.62 233.19 656.63 234.12 656.53 234.95 658.23 236.04 657.08 237 656.5 238.89 657.66 239.93 659.02 239.64 660.7 241.51 662.16 241.09 665.18 241.86 666.97 240.61 668.78 241.19 668.64 242.06 670.49 243.66 672.41 244.05 674.72 245.55 674.75 247.03 676.32 247.59 678.64 247.83 679.55 248.31 680.51 247.79 683.7 248.27 685.11 248.22 686.51 250.55 688.98 251.68 688.9 252.88 689.98 254.86 691.81 255.72 691.87 257.59 692.63 259.01 693.64 259.53 695.09 259.34 696.63 260.56 700.21 261 703.75 260.34 704.66 259.09 707.26 257.98 709.18 258.6 711.08 258.73 711.11 259.48 712.41 260.36 715.38 259.98 716.62 260.13 717.76 258.61 720.66 257.9 722.36 257.02 723.73 258.43 721.62 259.65 725.36 260.77 727.9 259.06 731.05 258.34 732.31 258.69 734.61 258.16 735.38 256.57 736.39 256.39 738 256.88 739.2 259.82 741.15 261.9 741.78 261.07 743.26 260.47 743.26 259.76 745.86 259.37 746.49 262.29 748.61 261.75 750.58 261.82 752.36 262.44 754.29 259.41 755.18 259.36 756.54 256.98 757.58 256.5 757.28 255.56 758.29 253.13 760.03 252.31 761.01 251.06 762.14 251.1 762.08 249.78 763.02 248.1 765.21 248.42 765.59 250.81 766.13 252.1 767.23 251.71 768.29 252.16 770.25 251.5 772.48 251.4 773.56 252.19 774.97 252.3 775.99 253.83 777.64 254.37 779.37 253.39 781.41 253.48 781.95 252.63 784.59 253.52 785.6 254.5 787.43 253.56 788.05 254.39 788.19 255.96 790.25 256.26 791.64 254.97 792.52 254.95 795.24 256.19 796.78 257.41 798.46 257.61 799 259.29 797.63 260.48 796.25 260.93 797.42 261.91 797.71 263.01 798.61 263.86 797.11 265.26 796.59 267.08 796.77 268.15 794.8 268.76 794.51 271.05 793.73 272.47 794.44 273.67 793.66 274.81 793.45 276.13 791.02 278.14 790.42 281.52 787.61 283.52 786.65 285.32 787.22 286 786.03 286.95 785.24 288.43 785.67 289.46 784.65 291.9 783.64 292.51 783.58 294.47 785.85 296.48 785.92 298.33 786.98 299.02 784.23 300.89 783.37 305.08 784.92 306.51 785.79 308.41 784.42 309.56 783.3 311.81 783.67 312.58 782.38 313.31 782.23 316.38 781.16 318.24 780.37 325.09 779.96 327.33 778.42 328.54 778.39 330.93 779.61 331.13 781.33 333.28 780.85 333.81 781.98 336.36 782.96 337.77 787.43 338.56 788.34 340.93 788.99 341 790.86 342.59 792.56 342.84 791.4 344.21 791.08 346.2 793.59 349.1 792.64 351.29 795.12 353.03 796.16 354.24 796.3 355.84 795.7 357.26 796.75 359.21 796.68 360.61 797.7 363.74 797.61 365.77 797.12 368.85 795.66 370.8 795.73 372.33 795.26 376.05 794.7 377.34 793.19 378.03 792.88 379.95 792.01 380.43 791.75 382.33 790.27 383.36 789.61 385.39 789.38 388.51 788.56 388.86 789.18 391.95 789.73 392.96 788.28 393.98 788.67 396.28 786.98 398.19 785.24 399.19 784.47 400.05 782.44 401.29 781.94 402.98 782.2 403.6 780.03 403.97 778.48 402.85 778.45 400.89 775.92 400.43 772.56 398.36 772.03 397.44 771.71 395.56 769.35 395.38 770.42 394.49 769.48 392.57 768.06 392.66 765.36 393.95 765.69 395.36 764.44 396.58 762.44 396.22 762.58 395.24 761.36 394.37 758.59 393.37 757.39 395.48 757.31 397.76 756.21 399.15 755.15 399.36 754.52 398.41 753.17 399.4 752.11 398.93 750.97 397.48 749.72 397.39 749.1 396.67 747.69 396.69 747.75 398.61 745 399.58 745.15 400.79 742.77 400.76 741.26 401.12 740.78 402 738.81 401.91 738.84 400.86 735.45 399.6 734.93 398.34 731.88 397.13 727 396.2 724.69 396.92 723.2 397.96 719.35 398.29 718.13 399.47 717.41 399.37 716.2 401.32 715.9 402.89 716.39 403.98 714.69 405.28 711.98 403.33 710.8 403.46 709.64 402.73 707.33 402.72 707.36 399.63 705.44 398.76 703.69 398.82 702.9 399.78 701.99 398.87 699.49 398.76 699.8 399.62 697.2 399.76 694.9 398.7 690.24 395.23 689.3 389.13 688.4 386.25 688.31 381.95 685.65 381.81 685.42 383.66 682.77 387.21 678.83 388.4 677.48 388.03 674.67 388.72 674.4 391.38 671.88 391.51 Z" id="Koshi"/>
<path d="M 671.88 391.51 670.51 392.15 670.89 394.06 668.88 394.85 667.58 394.64 664.95 396.34 662.11 395.62 658.37 394.35 657.04 395.71 655.87 397.75 654.33 397.6 653.85 396.74 651.91 396.51 651.49 395.37 645.96 393.94 644.63 393.35 644.61 392.24 640.96 391.01 639.16 390.71 637.68 388.85 637.61 387.99 636.37 386.59 634.41 386.1 633.81 386.52 632.01 386.21 627.91 383.69 625.46 383.21 621.98 382.02 622.08 381.2 618.15 380.13 616.68 379.97 616.84 378.89 613.44 378.6 611.97 379.26 610.28 378.86 607.88 379.07 606.23 381.2 604.57 381.69 601.56 379.09 600.08 378.88 598.47 379.59 597.08 378.88 596.86 377.74 594.97 377.62 590.47 375.64 590.12 374.98 585.92 374.03 584.23 375.28 580.92 374.86 579.02 375.73 578.92 377.54 577.2 378.97 574.97 379.73 572.71 381.07 569.56 383.48 568.41 382.83 569.33 381.56 568.67 379.73 566.73 379.45 566.65 380.4 565.39 380.29 564 379.1 563.81 378.18 560.66 377.63 558.68 376.77 557.03 375.27 557.36 374.46 556.36 373.65 556.41 368.71 557.21 367.1 556.69 365.89 557.31 363.06 557.25 361.37 555.95 359 554.29 357.8 551.85 356.68 548.22 355.74 547.44 353.88 546.37 353.75 544.8 355.29 542.89 356.18 541.65 354.98 540.71 356.95 539.5 357.6 538.43 357.28 536.21 359.55 535 359.31 534.05 359.8 533.84 361.23 532.35 360.74 532.11 361.67 529.53 362.77 527.66 361.93 526.86 362.33 525.23 361.82 524.74 362.64 522.92 363.49 521.64 365.01 520.06 364.88 518.03 366.7 515.21 365.65 510.78 365.35 508.24 364.63 506.02 365.09 504.63 363.95 502.59 360.01 504.01 357.9 504.17 354.79 503.88 354.09 501.74 354.25 498.99 353.99 498.51 354.31 496.16 353.86 494 354.34 493.56 355.57 492.56 355.47 490.9 356.14 488.06 355.66 488.11 353.63 489.4 353.59 490.97 352.6 489.53 352.08 485.79 351.68 484.56 350.84 485.22 349.97 482.49 349.63 482.35 348.32 483.14 347.21 481.61 345.25 480.67 345.3 478.75 344.52 476.44 344.5 471.44 342.54 471.03 340.56 468.58 339.45 467.31 339.32 465.06 341.76 464.58 340.51 463.06 339.63 461.43 341.08 459.11 340.01 458.16 340.02 456.01 338.71 453.9 338.2 450.27 336.81 450.69 333.93 452.56 332.76 453.46 331.42 452.92 330.54 454.26 327.28 453.95 324.94 454.26 322.04 454.85 319.46 451.26 313.03 448.3 308.48 446.92 308.39 442.64 307.3 439.56 307.05 434.89 306.22 434.69 305.48 436.67 304.01 440.1 303.59 439.61 300.94 440.95 299.54 441.75 298.09 441.92 296.44 442.66 295.97 443.72 296.87 448.82 297.18 450.29 297.97 450.64 299.28 451.61 298.96 453 299.31 457.74 298.82 458.42 297.79 460.68 298.48 464.78 298.46 467.19 300.3 468.97 300.43 469.99 300.99 470.73 302.29 473.39 302.54 473.77 303.36 475.2 303.67 477.57 305.03 482.56 306.56 483.33 305.93 485.19 305.55 485.71 306.78 488.32 306.03 488.76 306.34 490.83 305.53 493.8 305.99 494.22 306.42 494.57 308.78 495.64 310.09 496.72 310.21 497.68 312.69 499.46 313.63 499.54 314.66 500.56 315.68 501.76 315.9 503.12 317.13 505.11 316.84 507.99 317.51 509.68 317.22 510.45 318.76 511.47 319.19 513.99 318.54 517.89 319.51 519.35 319.58 520.49 320.68 522.89 321.02 523.8 320.74 524.36 322.08 525.38 322.06 528.01 322.99 529.18 323.06 529.66 324.86 531.58 325.5 532.92 325.25 534.37 327.3 537.02 327.61 537.95 326.8 539.92 327.2 546.85 327.9 548.77 327.09 551.04 325.05 552.08 324.77 553.71 323.13 555.62 322.92 556.37 322.27 557.96 322.94 560.58 323.49 563.01 324.83 565.06 325.58 566.15 324.86 567.93 325.68 567.43 327.18 568.93 327.85 569.75 328.88 571.8 327.02 574.84 328.64 577.21 329.46 576.99 330.57 578.39 333.14 579.57 333.58 580.31 336.08 582.46 338.93 584.49 339.53 586.25 339.33 588.74 339.58 593.05 339.66 597.03 341.43 600.56 342.67 603.79 344.69 605.69 346.34 608.29 347.97 608.72 349.29 606.98 350.61 605.28 350.77 605.22 351.87 602.08 350.75 599.26 348.76 600.83 351.2 604.73 352.95 605.56 353.06 607.47 354.71 609.85 352.88 612.53 352.55 614.04 353.21 616.67 353.11 619.08 353.87 619.94 352.73 620.78 350.36 623.81 350.49 625.24 350.92 628.05 352.39 630.15 352.37 630.48 354.12 632.72 355.45 632.89 356.36 634.09 356.83 634.19 357.84 637.37 357.51 637.49 359.53 635.34 362.06 636.99 362.74 637.91 361.92 639.84 363.34 637.49 366.15 639.52 366.89 639.48 368.75 640.41 369.55 640.93 371.02 642.16 370.78 644.78 371.71 645.43 370.91 647.63 371.58 649 371.4 651.07 371.72 652.44 370.1 655.64 369.6 656.03 370.6 658.12 371.27 661.67 369.52 662.98 370 663.96 369.37 665.14 369.67 666.42 371.57 668.66 369.48 670 369.58 670.48 368.77 672.51 366.91 672.33 364.96 673.6 364.24 673.9 365.87 674.66 366.77 676.3 367.61 677.73 367.24 679.68 369.53 680.38 370.91 681.59 369.9 682.55 370.69 682.53 373.7 681.5 375.05 680.4 375.71 679.85 377.73 679.2 378.09 680.18 380.26 679.65 382.13 680.53 383.27 678.71 384.67 677.97 385.79 676.46 386.71 674.74 387.07 673.03 389.41 673.22 389.92 671.88 391.51 Z" id="Madesh"/>
<path d="M 608.72 349.29 608.29 347.97 605.69 346.34 603.79 344.69 600.56 342.67 597.03 341.43 593.05 339.66 588.74 339.58 586.25 339.33 584.49 339.53 582.46 338.93 580.31 336.08 579.57 333.58 578.39 333.14 576.99 330.57 577.21 329.46 574.84 328.64 571.8 327.02 569.75 328.88 568.93 327.85 567.43 327.18 567.93 325.68 566.15 324.86 565.06 325.58 563.01 324.83 560.58 323.49 557.96 322.94 556.37 322.27 555.62 322.92 553.71 323.13 552.08 324.77 551.04 325.05 548.77 327.09 546.85 327.9 539.92 327.2 537.95 326.8 537.02 327.61 534.37 327.3 532.92 325.25 531.58 325.5 529.66 324.86 529.18 323.06 528.01 322.99 525.38 322.06 524.36 322.08 523.8 320.74 522.89 321.02 520.49 320.68 519.35 319.58 517.89 319.51 513.99 318.54 511.47 319.19 510.45 318.76 509.68 317.22 507.99 317.51 505.11 316.84 503.12 317.13 501.76 315.9 500.56 315.68 499.54 314.66 499.46 313.63 497.68 312.69 496.72 310.21 495.64 310.09 494.57 308.78 494.22 306.42 493.8 305.99 490.83 305.53 488.76 306.34 488.32 306.03 485.71 306.78 485.19 305.55 483.33 305.93 482.56 306.56 477.57 305.03 475.2 303.67 473.77 303.36 473.39 302.54 470.73 302.29 469.99 300.99 468.97 300.43 467.19 300.3 464.78 298.46 460.68 298.48 458.42 297.79 457.74 298.82 453 299.31 451.61 298.96 450.64 299.28 450.29 297.97 448.82 297.18 443.72 296.87 442.66 295.97 441.92 296.44 441.75 298.09 440.95 299.54 439.61 300.94 440.1 303.59 436.67 304.01 434.69 305.48 434.89 306.22 433.29 306.55 430.78 305.26 428.85 304.91 425.6 305.25 423.81 304.45 422.2 304.76 418.39 303.91 416.72 303.1 415.82 303.6 414.27 302.05 414.62 301.48 413.98 299.34 412.62 298.36 412.18 297.05 409.97 296.64 407.69 297.97 407.27 296.27 407.48 295.36 404.08 294.74 401.54 293.1 402.06 290.7 400.88 290.61 399.4 291.28 398.7 290.47 397.53 290.34 396.64 293.35 393.95 294.69 393.28 296.76 392.34 297.98 390.35 298.1 389.9 298.87 386.49 297.82 382.02 298.12 380.53 297.3 381.84 295.71 381.24 293.5 381.5 292.96 383.99 291.75 383.83 290.09 382.46 289.77 381.58 290.82 379.62 290.59 379.43 288.33 380.64 287.92 382.17 288.43 384.25 287.41 386.48 288.1 388.06 288.05 389.76 288.72 390.84 288.57 391.75 287.06 393.58 287.33 394.58 286.53 397.78 287.29 399.58 285.88 400.52 284.07 404.38 280.82 407.45 278.8 411.84 277.25 412.38 277.56 413.75 276.43 415.92 275.86 418.69 274.29 419.6 273.1 421.44 272.45 422.8 273.2 424.32 274.59 427.27 273.11 429.21 272.4 429.48 271.47 428.63 268.71 430.25 268.44 431.35 266.98 432.81 267.55 433.07 266.18 432.35 265.49 430.32 265.07 429.41 263.88 429.62 261.75 430.96 260.69 432.83 261.11 433.75 260.65 437.51 261.45 438.72 259.69 440.75 259.85 441.68 259.45 442.03 257.28 443.81 256.67 443.81 256.01 445.09 255.15 447.35 255.84 448.75 255.4 449.59 257.07 452.02 258.16 452.08 260.15 452.74 261.15 454.4 261.95 457.75 262.62 458.99 263.39 459.65 262.58 460.82 262.46 462.2 261.14 463.2 262.13 463.9 261.42 463.09 260.59 463.31 259.5 462.49 258.67 462.11 257.07 461.18 256.56 460.66 254.49 459.46 254.02 459.11 250.46 460.43 247.23 462.65 246.57 464.11 245 464.76 243.54 466.78 243.08 466.95 241.16 466.6 239.97 467.48 238.65 470.02 231.93 471.03 231.34 472.47 231.56 474.73 233.57 475.48 232.92 477.07 233.29 478.29 230.98 479.63 231.35 481.07 230.9 481.15 228.87 481.75 225.97 482.66 224.83 481.55 222.51 485.35 218.63 487.91 217.73 488.99 214.76 488.48 213.75 489.84 211.43 493.16 209.47 495.85 209.4 497.11 210.46 497.88 210.23 499.28 210.89 501.62 210.86 503.13 211.56 505.27 210.04 508.93 212.22 510.24 214.5 511.38 214.15 512.02 215.16 513.98 215.18 516.91 214.35 518.57 213.58 519.39 213.79 519.4 215.09 521.34 215.32 522.26 216.05 523.68 215.09 525.68 213.09 525.98 211.3 528.41 210.5 530.15 210.33 533.37 210.9 534.91 210.63 536.82 211.18 538.9 212.45 540.37 213.01 543.39 213.13 543.97 216 544.92 218.19 547.68 216.39 548.49 214.96 550.02 213.67 549.33 212.35 550.38 210.85 550.59 209.2 552.52 209.36 552.34 205.85 555 205.51 555.82 208.13 557.03 210.11 556.62 211.21 557.52 212.07 557.12 214.85 558.05 216.67 558.09 218.19 558.61 219.81 559.46 220.93 561.28 222.16 561.36 222.92 563.67 224.11 565.3 223.51 565.44 224.36 566.59 225.26 568.43 225.31 568.7 226.98 570.76 229.35 570.54 231.23 572.38 231.93 573.28 232.67 573.77 234.71 573.13 236.04 573.61 238.12 574.93 238.52 576.98 241 578.99 242.14 579.79 243.15 580.72 243.24 581.15 244.55 579.33 246.54 578.2 249.04 580.1 249.97 581.56 251.09 583.57 252.05 584.62 251.68 585.36 252.33 589.62 253.19 590.52 252.1 592.14 251.2 595.42 250.45 595.39 249.09 594.58 248.7 593.97 247.47 593.01 244.05 591.27 241.92 591.07 241.2 592.14 240.11 591.86 236.12 591.41 234.41 592.3 233.78 594.82 234.41 596.06 233.51 596.24 231.93 598.98 229.84 600.65 229.36 600.33 226.81 601.57 226.29 602.1 227.05 602.6 229.81 603.36 230.28 604.66 232.11 605.08 233.98 603.83 234.03 603.29 235.17 604.75 239.74 605.36 240.5 604.83 242.29 605.49 245.23 606.54 246 609.38 245.28 611.57 245.48 612.64 247.16 614.51 248.47 616.14 246.78 616.36 248.32 617.41 249.48 618.31 249.11 620.64 249.45 621.58 250.63 623 251.53 623.53 252.52 625.34 252.23 626.63 252.6 629.32 250.22 628.98 249.11 632.05 247.56 633.8 247.61 634.6 249.26 635.65 249.08 636.96 250.18 637.51 252 637.63 254.58 637.3 255.29 637.57 257.36 636.23 261.51 638.85 262.57 639.02 263.42 638.54 265.86 639.4 267.41 638.44 267.93 637.27 271.7 636.22 272.61 636 275.67 634.94 276.73 634.84 277.62 632.96 278.62 632.26 280.57 631.54 281.22 629.3 280.89 625.88 281.56 624.42 282.73 624.23 283.41 622.3 284.2 621.27 285.26 620.15 285.69 619.6 287.27 618.41 288.47 618.06 289.93 616.42 290.4 614.2 293.1 612.22 294.4 611.9 295.24 609.15 296.63 608.35 298.67 606.91 300.38 606.35 301.8 605.59 302.37 605.3 305.05 604.76 305.83 604.41 308.64 604.73 309.7 605.66 309.99 606.59 311.72 606.81 313.11 603.99 315.51 603.3 316.9 605.73 318.1 608.32 316.54 608.46 316.1 613.27 318.12 614.23 318.68 616.69 318.92 616.59 320.77 617.08 321.56 618.43 321.65 619.41 322.49 620.52 322.53 621.48 323.73 620.33 325.14 619.35 327.56 616.71 327.16 615.68 329.88 615.07 330.59 618.05 331.15 618.38 333.13 617.27 335.04 618.89 336.1 619.22 337.67 620.45 338.28 619.93 339.12 619.84 341.01 619 343.43 617.86 344.83 614.29 344.92 610.83 346.54 610.36 347.91 609.19 348.4 608.72 349.29 Z" id="Bagmati"/>
<path d="M 99.86 204.7 99.06 203.33 99.69 201.96 101.68 200.4 102.14 198.58 104.09 198.02 104.52 197.05 106 196.1 108.23 194.18 108.96 194.22 109.67 192.08 113.31 188.63 115.97 186.82 117.63 185.14 119.79 181.66 121.46 179.8 121.22 177.38 124.46 177.73 124.8 178.33 123.67 179.55 124.32 180.99 127.23 182.15 128.79 182.2 130.44 183.35 132.54 183.88 134.11 185 135.58 186.98 135.86 188.27 136.91 189.04 138.97 189.14 139.74 190.24 140.9 190.52 143.39 191.93 143.85 193.03 145.25 193.46 146.42 194.84 147.88 194.85 149.61 196.49 151.32 197.4 152.86 198.92 154.64 199.8 157.83 202.67 159.34 202.43 160.72 203.13 162.06 204.78 164.76 206.24 168.4 207.09 166.92 209.68 166.87 210.93 166.13 212.1 167.13 213.23 170.49 214.61 171.01 216.51 172.24 215.68 175.96 216.73 178.02 218.97 177.91 220 179.79 219.5 181.09 220.48 183.31 221.13 185.22 220.62 186.68 219.12 184.63 216.95 185.75 215.61 187.34 216.34 187.51 217.24 189.17 218.88 187.67 219.64 188.6 221.56 190.55 221.74 192.93 223.66 194.84 222.3 195.42 220.78 196.59 219.63 198.08 219.92 199.23 219 200.23 218.94 201.14 217.98 202.81 218.71 203.69 218.44 205.27 219.73 207.03 219.67 207.77 218.73 210.21 219.14 210.72 219.55 212.52 218.91 214.12 219.84 216.42 219.84 218.26 219.01 220.8 219.46 220.92 220.59 221.93 221.49 224.35 221.45 225.18 222.16 227.24 224.76 228.38 225.27 230.53 224.49 231.16 221.7 232.39 220.82 234.04 219.08 231.77 218.48 230.81 217.66 230 215.63 228.83 214.74 228.03 212.36 227.25 211.52 226.86 209.96 228.44 208.89 228.86 206.82 226.9 205.31 227.09 203.91 225.85 203.04 225.68 201.82 227.45 201.6 228.2 201.09 227.9 199.43 230.13 198.09 231.61 195.08 231.2 194 232.28 191.56 233.42 191.95 236.33 192.3 239.38 190.63 239.5 189.2 241.15 189.34 242.85 188.66 243.75 187.41 245.55 186.36 246.82 186.74 248.2 185.81 248.16 183.34 246.27 183.57 243.02 182.14 242.07 182.15 238.87 180.58 239.28 178.75 240.34 178.25 242.38 178.74 244.06 179.94 246.21 180 247.99 178.23 250.05 177.66 250.29 176.1 251.5 175.85 251.57 173.82 250.63 173.3 250.2 170.56 247.61 170.79 246.68 170.11 246.54 168.32 248.72 166.76 249.25 165.78 252.03 163.86 251.41 162.36 252.62 161.12 252.49 160.37 254.83 158.18 256.49 159.68 257.28 159.81 259.44 158.62 261.05 159.91 263.96 160.47 264.71 161.97 266.48 164 267.85 162.6 269.6 162.93 271.34 161.89 273.86 162.36 276.35 161.62 277.9 162.31 279.28 162.46 279.94 161.79 282.02 162.26 284.33 162.24 285.91 162.96 286.89 164.61 289.01 164.58 291.24 165.72 292.8 165.67 293.74 166.28 296.04 166.89 296.68 166.41 298.89 168.23 299.31 169.51 300.54 170.53 302.24 170.05 303.52 170.14 303.25 171.42 304.21 174.65 303.22 175.76 303.6 176.57 301.52 178.29 300.55 180.38 300.51 181.54 298.79 181.11 297.19 182.05 294.9 182.59 293.46 181.62 291.14 182.43 289.07 182.25 287.59 181.54 286.04 183.05 285.08 183.43 284.64 184.64 285.57 186.34 287.86 187.51 287.32 189.42 286.7 190.21 285.35 189.28 282.25 187.78 281.06 188.05 280.63 190.16 280.84 191.66 278.99 192.83 278.33 193.71 278.72 194.7 280.02 195.96 277.44 196.68 278.13 199.02 279.37 199.46 280.86 200.8 281.69 204.04 282.98 203.95 284.4 205.71 284.83 208.06 287.31 208.14 288.63 208.92 289.6 210.71 292.58 211.83 293.53 211.55 295.26 212.22 296.01 213.62 297.58 215 298.82 216.53 298.5 218.17 300.2 218.67 301.61 218.21 302.51 218.71 304.49 216.83 305.69 218.07 307.44 216.88 311.42 220.32 312.18 221.62 313.94 222.37 314.65 223.71 316.11 224.98 319.44 223.99 320.29 224.7 321.69 224.83 323.61 224.29 324.81 224.53 325.52 225.92 326.92 227.31 329.57 229.24 331.07 231.01 332.26 230.52 336.14 230.61 335.73 231.69 337.2 232.24 338.84 231.02 341.43 231.93 342.61 231.51 343.61 231.92 344.36 234.1 345.68 234.83 344.06 239.09 344.3 239.86 347.14 240.88 348.55 242.18 348.39 243.63 346.5 244.63 345.79 245.88 342.8 246.17 340.5 246.89 338.28 245.62 336.4 245.28 334.58 247.8 332.79 248.71 332.42 249.71 333.18 250.35 334.4 249.79 336.69 250.94 338.39 250.51 339.87 249.5 340.53 250.29 347.38 250.1 348.03 250.84 349.72 250.16 351.25 251.71 351.33 253.15 353.45 252.92 354.52 251.22 355.48 250.47 356.5 251.38 358.96 251.53 359.56 251.19 362.06 253.14 362.25 252.38 363.97 252.18 365.22 252.83 366.61 254.63 368.41 255.79 369.64 255.36 371.52 256.23 373.59 255.67 373.76 254.83 375.53 254.38 378.46 255.1 378.82 255.99 379.99 256.27 381.06 255.36 382.53 256.15 383.18 255.8 385.4 256.53 386.71 256.47 387.06 257.47 388.83 257.92 389.88 260.05 389.69 261.17 388.75 261.81 388.48 262.84 387.31 264.06 386.52 267.51 385.89 268.05 384.43 267.88 381.87 268.43 379.33 269.86 374.44 269.36 372.73 269.5 371.99 270.11 372.2 271.83 370.96 271.39 369.73 271.71 367.81 270.67 365.94 270.3 363.39 270.78 360.15 271.78 359.36 271.26 356.18 270.98 356.86 272.94 358.3 274.51 357.5 276.38 358.45 276.79 360.34 275.46 362.26 276.01 367.64 276.14 368.83 276.45 368.35 277.88 368.62 279.11 368.17 280.52 366.74 282.06 369.04 283.61 369.99 283.34 371.21 283.96 371.69 285.09 370.77 285.92 371.32 287.31 372.64 286.58 373.39 287.87 374.5 288.26 375.78 290.07 375.08 291.32 377.2 292.34 374.99 293.37 376.01 294.22 375.87 295.89 376.4 297.9 377.03 298.46 374.47 299.25 375.07 301.58 374.84 302.94 377.98 303.16 378.08 303.93 376.55 305.92 373.82 307.39 370.61 305.07 349.52 295.34 327.38 294.35 328.45 295.93 328.34 297.35 326.9 298.01 328.06 299.95 329.19 300.68 328.81 301.95 326.96 303.18 327.32 304.48 326 305.1 325.94 306.21 324.33 307.05 323.84 307.98 322.35 308.74 320.5 308.44 319.14 308.88 318.12 308.54 316 306.8 315.3 305.53 315.95 303.76 312.81 301.53 311.43 301.01 309.9 299.77 307.68 296.83 305.39 296.51 296.61 296.98 292.62 297.37 291.22 296.88 284.78 295.5 283.86 294.61 283.35 293.21 282.36 292.24 277.49 292.49 272.9 292.16 269.86 292.7 268.23 292.34 263.38 292.11 263.47 290.59 264.72 290.12 263.62 287.38 265.24 283.6 263.4 281.77 263.13 280.78 263.58 278.67 262.87 277.44 261.16 276.38 261.66 273.99 260.57 272.83 260.46 271.45 259.82 270.62 258.82 271.28 256.59 271.23 251.93 272.52 250.56 272.18 249.45 273.06 248.59 272.9 244.3 274.16 241.88 273.7 237.65 275.06 235.25 274.85 230.64 272.49 228.72 270.74 227.25 268.58 224.26 267.39 221.05 265.64 216.04 261.97 213.86 260.92 211.71 258.75 208.62 257.6 206.4 256.49 205.98 257.27 203.36 256.59 202.45 255.34 200.23 253.68 198.23 250.94 193.77 250.7 190.41 250.29 188.16 250.32 185.2 253.77 183.94 255.56 184.03 257.1 181.68 257.69 180.05 257.37 178.14 255.61 173.74 252.82 172.13 252.77 161.7 244.51 156.33 243.96 153.96 242.51 149.66 240.31 146.9 238.54 140.15 235.27 140.29 232.57 140.7 231.77 137.36 229.55 136.96 227.55 133.92 226.28 131.48 226.33 130.03 226.01 129.22 227.15 130.23 227.8 129.65 229.4 126.04 229.62 124.7 230.24 124.47 225.48 124.69 224.03 122.63 221.81 121.3 220.96 116.07 215.04 116.25 211.54 113.91 208.02 102.02 205.91 99.86 204.7 Z" id="Lumbini"/>
<path d="M 121.22 177.38 120.74 175.12 119.43 174.15 119.94 172.08 118.36 171.82 118.7 169.85 117.47 168.72 117.83 167.85 117.34 166.73 116.09 166.35 115.42 165.25 116.69 164.66 115.9 163.43 116.17 162.07 115.25 161.15 112.86 159.91 112.39 161.72 113.37 162.3 113.36 163.24 111.08 162.5 110.33 161.53 108.22 161.92 108.72 160.66 107.88 159.8 107.47 158.01 106.52 157.98 105.56 159.93 103.24 160.53 102 158.8 100.58 158.71 100.51 157.6 98.91 157.75 97.23 156.27 95.38 153.25 91.92 151.77 91.53 151.1 93.13 149.78 95.12 150.04 97.98 147.52 99.57 148.26 105.09 149.02 106.46 150.54 107.15 150.68 109.8 153.06 111.26 153.68 112.29 153.56 113.27 154.37 116.45 154.57 117.93 153.82 119.02 154.93 121.35 152.92 122.97 152.67 124.2 153.16 125.03 154.37 126.02 154.35 126.48 155.58 127.47 156.14 130.12 155.78 132.06 154.29 133.79 153.79 135.48 154.1 136.4 155.1 138.67 155.69 138.56 157.6 139.06 158.82 138.62 159.67 141.09 160.8 142.09 162.88 144.02 164.27 143.78 166.88 145.06 167.53 145.7 168.77 144.45 170.03 146.29 170.02 149.93 169.32 150.04 166.85 147.84 165.2 147.33 163.38 145.99 161.42 145.37 159.43 143.89 157.81 143.08 156.12 142.04 156.11 140.58 154.82 138.98 152.33 137.94 152.11 136.76 151.07 136.85 149.69 135.5 149.43 134.68 148.17 134.89 147.24 133.89 145.85 134.33 144.94 133.97 143.68 134.96 143.11 136.26 141.5 136.79 140.09 139.11 138.62 139.21 137.76 142.21 136.46 143.23 136.47 144.68 135.09 145.77 134.93 148.24 133.11 145.64 131.87 144.68 130.39 142.17 130.49 141.8 128.81 140.97 128.12 141.28 127.07 140.52 125.64 140.95 123.26 142.09 121.95 140.99 119.55 139.15 118.71 140.68 117.96 142.26 116.22 143.04 114.53 144.6 114.48 145.1 113.4 146.98 112.11 147.2 111.1 149.17 111.09 149.43 110 153.78 109.04 155.81 109.93 156.38 110.63 156.17 112.58 156.8 113.88 158.93 114.3 160.97 113.94 162.18 112.96 165.75 112.63 167.01 110.83 166.73 109.44 168.42 107.1 170.62 107.23 171.45 105.43 171.57 103.3 172.2 102.3 172.47 100.64 172.02 98.75 169.99 96.13 169.2 95.57 171.57 90.56 171.53 88.91 170.65 86.89 169.09 85.99 165.64 85.95 163.85 84.92 162.14 82.91 161.6 78.68 162.71 76.73 163.33 74.41 164.46 73.51 165.76 67.69 169.74 66.27 170.01 63.39 171.09 62.17 171.3 58.1 171.59 56.99 170.25 56.14 165.19 56.4 162.92 55.76 162.83 54.58 161.62 54.07 161.55 52.98 160.62 52.33 158.99 53.17 156.6 52.46 154.67 53.4 153.33 52.92 152.32 54.2 150.77 53.63 149.14 53.88 147.19 54.85 145.68 54.46 143.88 54.96 143.9 56.77 141.55 58.42 139.39 58.16 138.03 57.11 138.51 55.85 138.2 52.98 137.63 52.14 139.19 50.92 139.33 49.8 137.8 47.12 135.43 46.62 133.7 45.53 131.5 45.7 130.69 46.65 128.25 46.33 127.21 45.52 124.47 44.84 121.16 43.68 119.91 42.92 120.68 40.89 121.43 40.52 121.6 38.07 121.16 35.94 119.96 34.29 118.46 33.27 118.56 32.53 123.58 31.61 124.3 32.47 125.81 32.34 126 31.64 127.62 29.91 129.55 29.07 129.93 28.12 132.11 26.88 131.51 24.46 132 22.72 133.32 21.72 133.96 19.51 132.64 19.74 132.66 18.62 134.74 17.46 133.91 16.35 132.13 15.69 133.02 14.39 133.03 12.69 132.21 11.04 134.43 11.04 135.33 9.82 133.63 8.79 132.6 8.59 133.28 6.07 136.31 6.34 138.88 7.72 139.89 9.23 141.07 9.92 143.47 10.17 145.53 10.93 146.82 10.88 147.36 7.61 148.1 7.4 148 5.84 148.6 5.24 150.84 6.42 152.73 6.97 154.22 5.64 153.76 4.02 155.44 3.76 159.15 5.45 160.81 5.66 163.27 7 164.73 7.26 164.97 8.33 166.87 9.26 169.12 9.69 170.76 9.24 172.53 9.41 174.19 10.59 176.94 10.18 178.3 10.38 179.72 12 183.05 13.06 185.3 13.31 186.3 12.18 187.34 12.74 187.05 13.94 191.08 15.93 192.43 15.02 192.38 13.78 194.25 14.27 195.32 13.95 196.75 14.67 197.72 12.53 199.27 12.09 200.23 12.9 201.55 13.1 202.89 15.33 203.56 17.78 202.65 18.57 202.07 20.34 202.74 22.11 201.76 22.41 200.91 23.91 202.31 25.32 203.66 25.18 204.34 25.99 204.26 27.07 205.17 28 206.82 28.81 208.8 28.5 209.59 29.15 209.14 31.61 211.4 32.28 210.6 33.96 209.59 34.25 208.59 35.38 209.38 36.54 208.62 38.64 207.55 39.9 208.11 40.97 209.7 40.53 213.94 40.99 215.18 39.97 217.33 41.28 219 41.52 219.22 42.73 221.17 43.69 224.01 42.76 225 44.43 226.03 44.84 226.84 46.34 229.77 44.95 232.5 46.95 233.62 48.43 235.76 49.38 237.93 49.94 237.7 50.76 240.19 52.65 241.74 51.96 243.14 50.2 246.45 51.75 246.8 53.98 248.09 55.05 250.91 58.68 253.07 59.34 254.23 60.08 254.04 60.79 252.2 62.32 252.02 63.22 253.91 63.64 258.31 62.36 259.59 61.53 260.9 63.15 262.27 63.28 263.09 65.24 262.7 66.59 261.14 67.51 259.29 67.82 259.49 68.74 258.54 69.56 259.64 70.71 260.94 70 264.25 69.95 265.46 70.67 266.41 72.6 266.03 73.7 269.43 74.89 271.42 74.69 271.13 76.21 272.26 77.75 273.45 77.56 275.61 78.27 279.28 76.5 280.93 76.13 282.84 76.32 284.21 77.58 283.48 79.29 285.07 80.45 287.93 79.88 290.64 80.63 291.61 81.63 292.94 81.7 293.52 83.53 295.7 84.02 296.06 85.58 297.3 85.93 299.6 84.75 302.14 84.8 303.19 84.12 305.45 85.02 304.84 86.74 306.45 87.31 307.73 86.8 308.56 85.47 310.63 86.02 310.29 87.61 311.91 88.49 314.83 88.75 315.71 89.68 315.45 90.8 314.18 91.98 315.61 94.19 315.4 95.04 316.91 96.48 318.02 95.93 318.9 96.38 320.22 95.48 323.11 96.92 323.34 98.46 322.82 99.7 324.74 101.08 325.67 103.36 326.52 103.85 329.91 104.17 330.78 107.44 329.99 108.5 329.95 110.17 332.87 112 333.03 113.1 332.21 115.06 332.75 115.98 335.4 118.52 336.19 117.81 337.64 118.61 337.41 119.36 339.65 120.48 340.25 124.07 341.8 125.38 343.4 125.74 344.46 125.16 345.33 125.51 345.12 126.69 345.97 127.83 346.95 128.25 349.13 127.67 349.51 128.56 351.34 129.83 352.36 129.38 353.69 128.1 354.51 128.81 354.27 130.1 355.56 130.92 355.79 133.1 354.2 133.13 353.13 133.64 352.6 135.15 350.89 134.92 349.54 136.11 351.11 137.51 351.11 139.24 350.07 139.43 349.93 140.87 349.3 141.82 349.68 143.54 349.54 146.56 347.92 146.75 346.76 147.72 346.01 149.76 342.18 153.69 341.07 154.31 339.76 156.14 338.22 157.39 338.89 159.3 338.07 160.78 336.47 160.58 336.32 163.28 337.1 164.88 336.65 166.64 334.46 166.91 333.75 167.68 329.49 168.82 327.34 168.58 325.95 170.4 324.74 171.41 321.73 171.02 318.52 171.63 316.41 172.61 312.73 171.34 311.74 170.56 309.49 171.57 307.52 170.48 303.52 170.14 302.24 170.05 300.54 170.53 299.31 169.51 298.89 168.23 296.68 166.41 296.04 166.89 293.74 166.28 292.8 165.67 291.24 165.72 289.01 164.58 286.89 164.61 285.91 162.96 284.33 162.24 282.02 162.26 279.94 161.79 279.28 162.46 277.9 162.31 276.35 161.62 273.86 162.36 271.34 161.89 269.6 162.93 267.85 162.6 266.48 164 264.71 161.97 263.96 160.47 261.05 159.91 259.44 158.62 257.28 159.81 256.49 159.68 254.83 158.18 252.49 160.37 252.62 161.12 251.41 162.36 252.03 163.86 249.25 165.78 248.72 166.76 246.54 168.32 246.68 170.11 247.61 170.79 250.2 170.56 250.63 173.3 251.57 173.82 251.5 175.85 250.29 176.1 250.05 177.66 247.99 178.23 246.21 180 244.06 179.94 242.38 178.74 240.34 178.25 239.28 178.75 238.87 180.58 242.07 182.15 243.02 182.14 246.27 183.57 248.16 183.34 248.2 185.81 246.82 186.74 245.55 186.36 243.75 187.41 242.85 188.66 241.15 189.34 239.5 189.2 239.38 190.63 236.33 192.3 233.42 191.95 232.28 191.56 231.2 194 231.61 195.08 230.13 198.09 227.9 199.43 228.2 201.09 227.45 201.6 225.68 201.82 225.85 203.04 227.09 203.91 226.9 205.31 228.86 206.82 228.44 208.89 226.86 209.96 227.25 211.52 228.03 212.36 228.83 214.74 230 215.63 230.81 217.66 231.77 218.48 234.04 219.08 232.39 220.82 231.16 221.7 230.53 224.49 228.38 225.27 227.24 224.76 225.18 222.16 224.35 221.45 221.93 221.49 220.92 220.59 220.8 219.46 218.26 219.01 216.42 219.84 214.12 219.84 212.52 218.91 210.72 219.55 210.21 219.14 207.77 218.73 207.03 219.67 205.27 219.73 203.69 218.44 202.81 218.71 201.14 217.98 200.23 218.94 199.23 219 198.08 219.92 196.59 219.63 195.42 220.78 194.84 222.3 192.93 223.66 190.55 221.74 188.6 221.56 187.67 219.64 189.17 218.88 187.51 217.24 187.34 216.34 185.75 215.61 184.63 216.95 186.68 219.12 185.22 220.62 183.31 221.13 181.09 220.48 179.79 219.5 177.91 220 178.02 218.97 175.96 216.73 172.24 215.68 171.01 216.51 170.49 214.61 167.13 213.23 166.13 212.1 166.87 210.93 166.92 209.68 168.4 207.09 164.76 206.24 162.06 204.78 160.72 203.13 159.34 202.43 157.83 202.67 154.64 199.8 152.86 198.92 151.32 197.4 149.61 196.49 147.88 194.85 146.42 194.84 145.25 193.46 143.85 193.03 143.39 191.93 140.9 190.52 139.74 190.24 138.97 189.14 136.91 189.04 135.86 188.27 135.58 186.98 134.11 185 132.54 183.88 130.44 183.35 128.79 182.2 127.23 182.15 124.32 180.99 123.67 179.55 124.8 178.33 124.46 177.73 121.22 177.38 Z" id="Karnali"/>
<path d="M 380.53 297.3 378.33 298.25 377.03 298.46 376.4 297.9 375.87 295.89 376.01 294.22 374.99 293.37 377.2 292.34 375.08 291.32 375.78 290.07 374.5 288.26 373.39 287.87 372.64 286.58 371.32 287.31 370.77 285.92 371.69 285.09 371.21 283.96 369.99 283.34 369.04 283.61 366.74 282.06 368.17 280.52 368.62 279.11 368.35 277.88 368.83 276.45 367.64 276.14 362.26 276.01 360.34 275.46 358.45 276.79 357.5 276.38 358.3 274.51 356.86 272.94 356.18 270.98 359.36 271.26 360.15 271.78 363.39 270.78 365.94 270.3 367.81 270.67 369.73 271.71 370.96 271.39 372.2 271.83 371.99 270.11 372.73 269.5 374.44 269.36 379.33 269.86 381.87 268.43 384.43 267.88 385.89 268.05 386.52 267.51 387.31 264.06 388.48 262.84 388.75 261.81 389.69 261.17 389.88 260.05 388.83 257.92 387.06 257.47 386.71 256.47 385.4 256.53 383.18 255.8 382.53 256.15 381.06 255.36 379.99 256.27 378.82 255.99 378.46 255.1 375.53 254.38 373.76 254.83 373.59 255.67 371.52 256.23 369.64 255.36 368.41 255.79 366.61 254.63 365.22 252.83 363.97 252.18 362.25 252.38 362.06 253.14 359.56 251.19 358.96 251.53 356.5 251.38 355.48 250.47 354.52 251.22 353.45 252.92 351.33 253.15 351.25 251.71 349.72 250.16 348.03 250.84 347.38 250.1 340.53 250.29 339.87 249.5 338.39 250.51 336.69 250.94 334.4 249.79 333.18 250.35 332.42 249.71 332.79 248.71 334.58 247.8 336.4 245.28 338.28 245.62 340.5 246.89 342.8 246.17 345.79 245.88 346.5 244.63 348.39 243.63 348.55 242.18 347.14 240.88 344.3 239.86 344.06 239.09 345.68 234.83 344.36 234.1 343.61 231.92 342.61 231.51 341.43 231.93 338.84 231.02 337.2 232.24 335.73 231.69 336.14 230.61 332.26 230.52 331.07 231.01 329.57 229.24 326.92 227.31 325.52 225.92 324.81 224.53 323.61 224.29 321.69 224.83 320.29 224.7 319.44 223.99 316.11 224.98 314.65 223.71 313.94 222.37 312.18 221.62 311.42 220.32 307.44 216.88 305.69 218.07 304.49 216.83 302.51 218.71 301.61 218.21 300.2 218.67 298.5 218.17 298.82 216.53 297.58 215 296.01 213.62 295.26 212.22 293.53 211.55 292.58 211.83 289.6 210.71 288.63 208.92 287.31 208.14 284.83 208.06 284.4 205.71 282.98 203.95 281.69 204.04 280.86 200.8 279.37 199.46 278.13 199.02 277.44 196.68 280.02 195.96 278.72 194.7 278.33 193.71 278.99 192.83 280.84 191.66 280.63 190.16 281.06 188.05 282.25 187.78 285.35 189.28 286.7 190.21 287.32 189.42 287.86 187.51 285.57 186.34 284.64 184.64 285.08 183.43 286.04 183.05 287.59 181.54 289.07 182.25 291.14 182.43 293.46 181.62 294.9 182.59 297.19 182.05 298.79 181.11 300.51 181.54 300.55 180.38 301.52 178.29 303.6 176.57 303.22 175.76 304.21 174.65 303.25 171.42 303.52 170.14 307.52 170.48 309.49 171.57 311.74 170.56 312.73 171.34 316.41 172.61 318.52 171.63 321.73 171.02 324.74 171.41 325.95 170.4 327.34 168.58 329.49 168.82 333.75 167.68 334.46 166.91 336.65 166.64 337.1 164.88 336.32 163.28 336.47 160.58 338.07 160.78 338.89 159.3 338.22 157.39 339.76 156.14 341.07 154.31 342.18 153.69 346.01 149.76 346.76 147.72 347.92 146.75 349.54 146.56 349.68 143.54 349.3 141.82 349.93 140.87 350.07 139.43 351.11 139.24 351.11 137.51 349.54 136.11 350.89 134.92 352.6 135.15 353.13 133.64 354.2 133.13 355.79 133.1 355.56 130.92 354.27 130.1 354.51 128.81 353.69 128.1 353.96 125.37 356.32 124.47 358.97 121.39 360.87 121.36 364.49 121.76 367.39 120.85 367.84 120.3 367.07 118.56 368.74 116.86 368.92 115.75 372.48 116.15 373.16 115.04 377.94 113.43 380.16 114.15 382.22 114.28 383.82 112.91 384.9 113.15 387.19 114.51 387.25 116.45 389.65 117.06 391.57 115.88 392.78 116.88 394.14 117.41 395.68 116.49 397.09 116.92 398.69 117.97 399.19 118.86 398.28 120.99 401.14 122.21 402.34 121.7 404.84 122.06 406.15 121.43 406.77 122.72 406.84 124.39 405.03 124.99 403.32 126.34 403.17 127.2 403.86 128.49 403.53 129.27 404.26 130.68 404.54 132.65 406.93 133.16 407.04 135.19 405.51 137.44 405.86 140.76 407.75 140.1 408.91 140.11 411.56 141.7 411.56 144.12 410.74 145.61 410.69 147.2 409.42 151.19 408.87 153.62 409.78 155.91 412.21 156.09 413.34 155.39 414.12 156.46 416.57 157.89 419.87 158.64 421.04 157.89 422.22 159.04 423.99 158.65 427.31 159.7 426.53 161.99 428.26 161.86 429.93 162.94 429.61 164.81 430.91 165.63 430.97 166.67 430.05 167.96 431.56 168.41 432.46 169.75 434.34 170.14 435.24 171.29 437.71 170 438.61 170.48 440.17 170.43 441.32 169.8 443.29 171.31 445.32 171.17 446.63 171.48 448.65 171.18 449.98 172 451.04 173.34 451.03 174.52 452.1 174.88 453.52 176.81 454.71 176.83 456.36 177.63 455.61 179.27 455.95 181.18 457.22 181.33 458.34 182.54 459.52 182.91 463.86 183.66 471.25 187.42 472.07 186.48 474.1 186.26 474.5 185.68 476.49 185.67 477.3 185.05 479.91 185.08 480.27 186.49 482.51 185.86 484.56 184.46 484.18 183.29 485.31 182.28 486.14 180.92 486.95 180.69 489.33 177.83 490.29 177.73 491.01 176.48 493.15 177.55 496.58 176.08 498.26 177.14 498.44 177.92 500.86 180.3 502.55 180.16 503.38 181.4 504.68 181.94 503.82 184.02 502.29 184.81 503.04 186.59 504.04 187.59 503.38 188.45 503.77 189.99 503.45 191.12 501.55 191.21 501.55 192.27 500.64 193.48 500.62 194.62 499.54 195.75 497.47 195.55 495.02 198.59 495.26 199.38 496.47 199.93 496.31 200.89 496.69 203.55 497.51 204.46 497.12 206.97 496.5 207.49 495.85 209.4 493.16 209.47 489.84 211.43 488.48 213.75 488.99 214.76 487.91 217.73 485.35 218.63 481.55 222.51 482.66 224.83 481.75 225.97 481.15 228.87 481.07 230.9 479.63 231.35 478.29 230.98 477.07 233.29 475.48 232.92 474.73 233.57 472.47 231.56 471.03 231.34 470.02 231.93 467.48 238.65 466.6 239.97 466.95 241.16 466.78 243.08 464.76 243.54 464.11 245 462.65 246.57 460.43 247.23 459.11 250.46 459.46 254.02 460.66 254.49 461.18 256.56 462.11 257.07 462.49 258.67 463.31 259.5 463.09 260.59 463.9 261.42 463.2 262.13 462.2 261.14 460.82 262.46 459.65 262.58 458.99 263.39 457.75 262.62 454.4 261.95 452.74 261.15 452.08 260.15 452.02 258.16 449.59 257.07 448.75 255.4 447.35 255.84 445.09 255.15 443.81 256.01 443.81 256.67 442.03 257.28 441.68 259.45 440.75 259.85 438.72 259.69 437.51 261.45 433.75 260.65 432.83 261.11 430.96 260.69 429.62 261.75 429.41 263.88 430.32 265.07 432.35 265.49 433.07 266.18 432.81 267.55 431.35 266.98 430.25 268.44 428.63 268.71 429.48 271.47 429.21 272.4 427.27 273.11 424.32 274.59 422.8 273.2 421.44 272.45 419.6 273.1 418.69 274.29 415.92 275.86 413.75 276.43 412.38 277.56 411.84 277.25 407.45 278.8 404.38 280.82 400.52 284.07 399.58 285.88 397.78 287.29 394.58 286.53 393.58 287.33 391.75 287.06 390.84 288.57 389.76 288.72 388.06 288.05 386.48 288.1 384.25 287.41 382.17 288.43 380.64 287.92 379.43 288.33 379.62 290.59 381.58 290.82 382.46 289.77 383.83 290.09 383.99 291.75 381.5 292.96 381.24 293.5 381.84 295.71 380.53 297.3 Z" id="Gandaki"/>
<path d="M 99.86 204.7 97.77 203.18 96.68 202.85 96.43 204.28 94.91 202.61 96.58 201.42 95.15 201.05 94.55 200.35 94.98 199.1 93.24 198.86 91.22 200.79 89.86 200.45 89.75 199.3 88.54 199.5 87.85 198.79 85.19 198.3 84.03 197.71 83.61 195.74 84.31 194.59 83.08 193.8 81.1 193.4 79.08 194.64 77.93 194.38 75.18 192.33 73.64 192.29 72.15 191.49 72.61 190.09 70.68 189.49 70.53 187.93 67.63 187.08 66.3 187.05 65.3 187.7 62.91 185.82 63.43 184.22 61.65 184.13 61.86 182.55 61 181.78 60.69 180.45 59.09 181.23 58.13 180.32 57.33 180.9 55.2 180.71 54.68 179.42 52.12 178.55 53.12 176.74 51 175.94 48.17 175.67 44.87 177.6 44.61 178.17 45.38 182.23 45.72 183 46.39 186.84 47.26 187.33 46.5 189.18 44.99 187.78 41.5 185.51 40.4 182.44 37.64 180.9 35.91 180.72 32.15 181.78 30.47 180.93 29.9 179.63 27.21 178.05 26.36 174.77 23.73 173.63 22.52 173.8 20.38 171.88 21.25 170.49 19.83 169.09 18.28 168.95 16.44 169.33 12.06 166.71 8.84 163.6 6.84 162.14 2.62 162.57 1.61 161.3 1 153.55 4.68 147.78 5.09 146.68 6.83 147.15 7.7 144.77 7.66 142.25 8.64 139.59 7.86 139.37 9.42 135.26 12.72 132.76 13.36 131.9 15.2 132.68 15.82 133.42 18.32 133.69 20.37 131.72 21.91 130.98 20.59 129.11 20.54 127 18.89 125.35 19.68 123.67 20.91 125.13 22.22 125.07 23.49 126.25 24.41 125.22 23.76 122.63 24.58 121.83 24.6 119.66 25.09 117.4 26.43 115.8 26.28 114.43 24.3 113.58 22.72 111.43 22.58 110.07 21.84 108.79 22.56 108.31 21.9 106.63 18.95 105.02 19.5 102.55 19.38 101.58 24.91 100.95 23.49 99.1 24.27 97.55 25.95 97.88 26.15 96.36 28.71 95.38 30.35 93.17 28.72 92.28 29.5 90.94 32.41 90.33 33.63 88.36 35.27 86.96 35.26 84.6 36.32 83.92 36.08 81.61 35.16 80.77 33.66 80.31 32.84 78.87 32.23 76.52 31.13 73.91 31.34 71.8 33.13 71.72 36.03 67.38 40.81 66.75 43.52 67.41 44.01 65.83 44.98 64.7 46.4 64.31 47.98 62.49 49.51 61.73 49.83 60.14 50.78 59.1 51.39 57.56 51.1 56.28 52.24 53.6 53.6 51.97 57.03 50.77 58.83 51.68 61.7 51.39 62.95 49.84 65.07 48.32 65.78 47.33 67.65 47.39 68.54 46.72 69.56 44.61 69.35 43.43 69.84 42.55 71.65 41.81 73.83 38.97 75.8 37.58 77.2 37.83 78.1 37.33 78.23 35.91 81.38 34.38 80.67 31.61 77.53 28.37 75.42 25.34 73.25 23.99 71.97 21.88 69.9 19.97 69.64 17.76 68.09 17.33 67.25 16.37 65.31 15.06 62.17 14.52 60.55 13.58 60.07 12.76 59.53 10.32 57.85 9.09 56.81 7.29 56.92 6.4 55.22 3.7 54.31 3.33 51.46 4 48.12 6.67 46.76 5.69 47.03 4.62 48.26 3.43 50.1 2.86 50.64 1.89 54.68 1 55.41 2.18 56.36 1.86 57.62 2.98 59.78 3.72 61.72 5.16 62.68 6.43 64.65 6.2 68.3 8.97 68.87 9.83 71.28 11.52 72.78 13.82 73.93 14.4 73.89 15.26 75.52 15.34 76.21 16.17 78.16 15.97 79.8 16.26 80.93 17.59 83.75 17.72 86.47 19.8 86.76 21.28 88.59 20.6 92.23 20.83 94.09 21.62 94.05 22.18 96.4 22.92 95.8 25.13 97.19 26.25 97.73 29.77 99.29 30.91 99.54 31.79 101.41 32.85 100.94 35.17 101.52 36.93 103.26 37.84 103.92 38.92 102.2 42.04 104.8 43.98 105.4 45.37 107.88 46.22 111.3 46.3 112.35 45.12 113.62 45.36 114.57 46.64 117.31 46.26 118.08 45.04 116.53 44.27 119.91 42.92 121.16 43.68 124.47 44.84 127.21 45.52 128.25 46.33 130.69 46.65 131.5 45.7 133.7 45.53 135.43 46.62 137.8 47.12 139.33 49.8 139.19 50.92 137.63 52.14 138.2 52.98 138.51 55.85 138.03 57.11 139.39 58.16 141.55 58.42 143.9 56.77 143.88 54.96 145.68 54.46 147.19 54.85 149.14 53.88 150.77 53.63 152.32 54.2 153.33 52.92 154.67 53.4 156.6 52.46 158.99 53.17 160.62 52.33 161.55 52.98 161.62 54.07 162.83 54.58 162.92 55.76 165.19 56.4 170.25 56.14 171.59 56.99 171.3 58.1 171.09 62.17 170.01 63.39 169.74 66.27 165.76 67.69 164.46 73.51 163.33 74.41 162.71 76.73 161.6 78.68 162.14 82.91 163.85 84.92 165.64 85.95 169.09 85.99 170.65 86.89 171.53 88.91 171.57 90.56 169.2 95.57 169.99 96.13 172.02 98.75 172.47 100.64 172.2 102.3 171.57 103.3 171.45 105.43 170.62 107.23 168.42 107.1 166.73 109.44 167.01 110.83 165.75 112.63 162.18 112.96 160.97 113.94 158.93 114.3 156.8 113.88 156.17 112.58 156.38 110.63 155.81 109.93 153.78 109.04 149.43 110 149.17 111.09 147.2 111.1 146.98 112.11 145.1 113.4 144.6 114.48 143.04 114.53 142.26 116.22 140.68 117.96 139.15 118.71 140.99 119.55 142.09 121.95 140.95 123.26 140.52 125.64 141.28 127.07 140.97 128.12 141.8 128.81 142.17 130.49 144.68 130.39 145.64 131.87 148.24 133.11 145.77 134.93 144.68 135.09 143.23 136.47 142.21 136.46 139.21 137.76 139.11 138.62 136.79 140.09 136.26 141.5 134.96 143.11 133.97 143.68 134.33 144.94 133.89 145.85 134.89 147.24 134.68 148.17 135.5 149.43 136.85 149.69 136.76 151.07 137.94 152.11 138.98 152.33 140.58 154.82 142.04 156.11 143.08 156.12 143.89 157.81 145.37 159.43 145.99 161.42 147.33 163.38 147.84 165.2 150.04 166.85 149.93 169.32 146.29 170.02 144.45 170.03 145.7 168.77 145.06 167.53 143.78 166.88 144.02 164.27 142.09 162.88 141.09 160.8 138.62 159.67 139.06 158.82 138.56 157.6 138.67 155.69 136.4 155.1 135.48 154.1 133.79 153.79 132.06 154.29 130.12 155.78 127.47 156.14 126.48 155.58 126.02 154.35 125.03 154.37 124.2 153.16 122.97 152.67 121.35 152.92 119.02 154.93 117.93 153.82 116.45 154.57 113.27 154.37 112.29 153.56 111.26 153.68 109.8 153.06 107.15 150.68 106.46 150.54 105.09 149.02 99.57 148.26 97.98 147.52 95.12 150.04 93.13 149.78 91.53 151.1 91.92 151.77 95.38 153.25 97.23 156.27 98.91 157.75 100.51 157.6 100.58 158.71 102 158.8 103.24 160.53 105.56 159.93 106.52 157.98 107.47 158.01 107.88 159.8 108.72 160.66 108.22 161.92 110.33 161.53 111.08 162.5 113.36 163.24 113.37 162.3 112.39 161.72 112.86 159.91 115.25 161.15 116.17 162.07 115.9 163.43 116.69 164.66 115.42 165.25 116.09 166.35 117.34 166.73 117.83 167.85 117.47 168.72 118.7 169.85 118.36 171.82 119.94 172.08 119.43 174.15 120.74 175.12 121.22 177.38 121.46 179.8 119.79 181.66 117.63 185.14 115.97 186.82 113.31 188.63 109.67 192.08 108.96 194.22 108.23 194.18 106 196.1 104.52 197.05 104.09 198.02 102.14 198.58 101.68 200.4 99.69 201.96 99.06 203.33 99.86 204.7 Z" id="Sudur Pashchim"/>
</g>
<g id="PROVINCE2">
<path d="M 671.88 391.51 673.22 389.92 673.03 389.41 674.74 387.07 676.46 386.71 677.97 385.79 678.71 384.67 680.53 383.27 679.65 382.13 680.18 380.26 679.2 378.09 679.85 377.73 680.4 375.71 681.5 375.05 682.53 373.7 682.55 370.69 681.59 369.9 680.38 370.91 679.68 369.53 677.73 367.24 676.3 367.61 674.66 366.77 673.9 365.87 673.6 364.24 672.33 364.96 672.51 366.91 670.48 368.77 670 369.58 668.66 369.48 666.42 371.57 665.14 369.67 663.96 369.37 662.98 370 661.67 369.52 658.12 371.27 656.03 370.6 655.64 369.6 652.44 370.1 651.07 371.72 649 371.4 647.63 371.58 645.43 370.91 644.78 371.71 642.16 370.78 640.93 371.02 640.41 369.55 639.48 368.75 639.52 366.89 637.49 366.15 639.84 363.34 637.91 361.92 636.99 362.74 635.34 362.06 637.49 359.53 637.37 357.51 634.19 357.84 634.09 356.83 632.89 356.36 632.72 355.45 630.48 354.12 630.15 352.37 628.05 352.39 625.24 350.92 623.81 350.49 620.78 350.36 619.94 352.73 619.08 353.87 616.67 353.11 614.04 353.21 612.53 352.55 609.85 352.88 607.47 354.71 605.56 353.06 604.73 352.95 600.83 351.2 599.26 348.76 602.08 350.75 605.22 351.87 605.28 350.77 606.98 350.61 608.72 349.29 609.19 348.4 610.36 347.91 610.83 346.54 614.29 344.92 617.86 344.83 619 343.43 619.84 341.01 619.93 339.12 620.45 338.28 619.22 337.67 618.89 336.1 617.27 335.04 618.38 333.13 618.05 331.15 615.07 330.59 615.68 329.88 616.71 327.16 619.35 327.56 620.33 325.14 621.48 323.73 620.52 322.53 619.41 322.49 618.43 321.65 617.08 321.56 616.59 320.77 616.69 318.92 614.23 318.68 613.27 318.12 608.46 316.1 608.32 316.54 605.73 318.1 603.3 316.9 603.99 315.51 606.81 313.11 606.59 311.72 605.66 309.99 604.73 309.7 604.41 308.64 604.76 305.83 605.3 305.05 605.59 302.37 606.35 301.8 606.91 300.38 608.35 298.67 609.15 296.63 611.9 295.24 612.22 294.4 614.2 293.1 616.42 290.4 618.06 289.93 618.41 288.47 619.6 287.27 620.15 285.69 621.27 285.26 622.3 284.2 624.23 283.41 624.42 282.73 625.88 281.56 629.3 280.89 631.54 281.22 632.26 280.57 632.96 278.62 634.84 277.62 634.94 276.73 636 275.67 636.22 272.61 637.27 271.7 638.44 267.93 639.4 267.41 638.54 265.86 639.02 263.42 638.85 262.57 636.23 261.51 637.57 257.36 637.3 255.29 637.63 254.58 637.51 252 636.96 250.18 635.65 249.08 634.6 249.26 633.8 247.61 634.11 246.15 633.53 244.86 634.45 241.71 635.09 240.98 635.85 238.38 637.06 238.39 638.68 236.6 638.03 235.77 638.8 234.11 638.38 232.86 639.56 232.28 642.32 233.37 642.33 234.78 642.89 235.91 645.48 236.43 647.75 235.42 648.07 234.05 650.8 232.71 655.62 233.19 656.63 234.12 656.53 234.95 658.23 236.04 657.08 237 656.5 238.89 657.66 239.93 659.02 239.64 660.7 241.51 662.16 241.09 665.18 241.86 666.97 240.61 668.78 241.19 668.64 242.06 670.49 243.66 672.41 244.05 674.72 245.55 674.75 247.03 676.32 247.59 678.64 247.83 679.55 248.31 680.51 247.79 683.7 248.27 685.11 248.22 686.51 250.55 688.98 251.68 688.9 252.88 689.98 254.86 691.81 255.72 691.87 257.59 692.63 259.01 693.64 259.53 695.09 259.34 696.63 260.56 700.21 261 703.75 260.34 704.66 259.09 707.26 257.98 709.18 258.6 711.08 258.73 711.11 259.48 712.41 260.36 715.38 259.98 716.62 260.13 717.76 258.61 720.66 257.9 722.36 257.02 723.73 258.43 721.62 259.65 725.36 260.77 727.9 259.06 731.05 258.34 732.31 258.69 734.61 258.16 735.38 256.57 736.39 256.39 738 256.88 739.2 259.82 741.15 261.9 741.78 261.07 743.26 260.47 743.26 259.76 745.86 259.37 746.49 262.29 748.61 261.75 750.58 261.82 752.36 262.44 754.29 259.41 755.18 259.36 756.54 256.98 757.58 256.5 757.28 255.56 758.29 253.13 760.03 252.31 761.01 251.06 762.14 251.1 762.08 249.78 763.02 248.1 765.21 248.42 765.59 250.81 766.13 252.1 767.23 251.71 768.29 252.16 770.25 251.5 772.48 251.4 773.56 252.19 774.97 252.3 775.99 253.83 777.64 254.37 779.37 253.39 781.41 253.48 781.95 252.63 784.59 253.52 785.6 254.5 787.43 253.56 788.05 254.39 788.19 255.96 790.25 256.26 791.64 254.97 792.52 254.95 795.24 256.19 796.78 257.41 798.46 257.61 799 259.29 797.63 260.48 796.25 260.93 797.42 261.91 797.71 263.01 798.61 263.86 797.11 265.26 796.59 267.08 796.77 268.15 794.8 268.76 794.51 271.05 793.73 272.47 794.44 273.67 793.66 274.81 793.45 276.13 791.02 278.14 790.42 281.52 787.61 283.52 786.65 285.32 787.22 286 786.03 286.95 785.24 288.43 785.67 289.46 784.65 291.9 783.64 292.51 783.58 294.47 785.85 296.48 785.92 298.33 786.98 299.02 784.23 300.89 783.37 305.08 784.92 306.51 785.79 308.41 784.42 309.56 783.3 311.81 783.67 312.58 782.38 313.31 782.23 316.38 781.16 318.24 780.37 325.09 779.96 327.33 778.42 328.54 778.39 330.93 779.61 331.13 781.33 333.28 780.85 333.81 781.98 336.36 782.96 337.77 787.43 338.56 788.34 340.93 788.99 341 790.86 342.59 792.56 342.84 791.4 344.21 791.08 346.2 793.59 349.1 792.64 351.29 795.12 353.03 796.16 354.24 796.3 355.84 795.7 357.26 796.75 359.21 796.68 360.61 797.7 363.74 797.61 365.77 797.12 368.85 795.66 370.8 795.73 372.33 795.26 376.05 794.7 377.34 793.19 378.03 792.88 379.95 792.01 380.43 791.75 382.33 790.27 383.36 789.61 385.39 789.38 388.51 788.56 388.86 789.18 391.95 789.73 392.96 788.28 393.98 788.67 396.28 786.98 398.19 785.24 399.19 784.47 400.05 782.44 401.29 781.94 402.98 782.2 403.6 780.03 403.97 778.48 402.85 778.45 400.89 775.92 400.43 772.56 398.36 772.03 397.44 771.71 395.56 769.35 395.38 770.42 394.49 769.48 392.57 768.06 392.66 765.36 393.95 765.69 395.36 764.44 396.58 762.44 396.22 762.58 395.24 761.36 394.37 758.59 393.37 757.39 395.48 757.31 397.76 756.21 399.15 755.15 399.36 754.52 398.41 753.17 399.4 752.11 398.93 750.97 397.48 749.72 397.39 749.1 396.67 747.69 396.69 747.75 398.61 745 399.58 745.15 400.79 742.77 400.76 741.26 401.12 740.78 402 738.81 401.91 738.84 400.86 735.45 399.6 734.93 398.34 731.88 397.13 727 396.2 724.69 396.92 723.2 397.96 719.35 398.29 718.13 399.47 717.41 399.37 716.2 401.32 715.9 402.89 716.39 403.98 714.69 405.28 711.98 403.33 710.8 403.46 709.64 402.73 707.33 402.72 707.36 399.63 705.44 398.76 703.69 398.82 702.9 399.78 701.99 398.87 699.49 398.76 699.8 399.62 697.2 399.76 694.9 398.7 690.24 395.23 689.3 389.13 688.4 386.25 688.31 381.95 685.65 381.81 685.42 383.66 682.77 387.21 678.83 388.4 677.48 388.03 674.67 388.72 674.4 391.38 671.88 391.51 Z" id="Koshi"/>
<path d="M 671.88 391.51 670.51 392.15 670.89 394.06 668.88 394.85 667.58 394.64 664.95 396.34 662.11 395.62 658.37 394.35 657.04 395.71 655.87 397.75 654.33 397.6 653.85 396.74 651.91 396.51 651.49 395.37 645.96 393.94 644.63 393.35 644.61 392.24 640.96 391.01 639.16 390.71 637.68 388.85 637.61 387.99 636.37 386.59 634.41 386.1 633.81 386.52 632.01 386.21 627.91 383.69 625.46 383.21 621.98 382.02 622.08 381.2 618.15 380.13 616.68 379.97 616.84 378.89 613.44 378.6 611.97 379.26 610.28 378.86 607.88 379.07 606.23 381.2 604.57 381.69 601.56 379.09 600.08 378.88 598.47 379.59 597.08 378.88 596.86 377.74 594.97 377.62 590.47 375.64 590.12 374.98 585.92 374.03 584.23 375.28 580.92 374.86 579.02 375.73 578.92 377.54 577.2 378.97 574.97 379.73 572.71 381.07 569.56 383.48 568.41 382.83 569.33 381.56 568.67 379.73 566.73 379.45 566.65 380.4 565.39 380.29 564 379.1 563.81 378.18 560.66 377.63 558.68 376.77 557.03 375.27 557.36 374.46 556.36 373.65 556.41 368.71 557.21 367.1 556.69 365.89 557.31 363.06 557.25 361.37 555.95 359 554.29 357.8 551.85 356.68 548.22 355.74 547.44 353.88 546.37 353.75 544.8 355.29 542.89 356.18 541.65 354.98 540.71 356.95 539.5 357.6 538.43 357.28 536.21 359.55 535 359.31 534.05 359.8 533.84 361.23 532.35 360.74 532.11 361.67 529.53 362.77 527.66 361.93 526.86 362.33 525.23 361.82 524.74 362.64 522.92 363.49 521.64 365.01 520.06 364.88 518.03 366.7 515.21 365.65 510.78 365.35 508.24 364.63 506.02 365.09 504.63 363.95 502.59 360.01 504.01 357.9 504.17 354.79 503.88 354.09 501.74 354.25 498.99 353.99 498.51 354.31 496.16 353.86 494 354.34 493.56 355.57 492.56 355.47 490.9 356.14 488.06 355.66 488.11 353.63 489.4 353.59 490.97 352.6 489.53 352.08 485.79 351.68 484.56 350.84 485.22 349.97 482.49 349.63 482.35 348.32 483.14 347.21 481.61 345.25 480.67 345.3 478.75 344.52 476.44 344.5 471.44 342.54 471.03 340.56 468.58 339.45 467.31 339.32 465.06 341.76 464.58 340.51 463.06 339.63 461.43 341.08 459.11 340.01 458.16 340.02 456.01 338.71 453.9 338.2 450.27 336.81 450.69 333.93 452.56 332.76 453.46 331.42 452.92 330.54 454.26 327.28 453.95 324.94 454.26 322.04 454.85 319.46 451.26 313.03 448.3 308.48 446.92 308.39 442.64 307.3 439.56 307.05 434.89 306.22 434.69 305.48 436.67 304.01 440.1 303.59 439.61 300.94 440.95 299.54 441.75 298.09 441.92 296.44 442.66 295.97 443.72 296.87 448.82 297.18 450.29 297.97 450.64 299.28 451.61 298.96 453 299.31 457.74 298.82 458.42 297.79 460.68 298.48 464.78 298.46 467.19 300.3 468.97 300.43 469.99 300.99 470.73 302.29 473.39 302.54 473.77 303.36 475.2 303.67 477.57 305.03 482.56 306.56 483.33 305.93 485.19 305.55 485.71 306.78 488.32 306.03 488.76 306.34 490.83 305.53 493.8 305.99 494.22 306.42 494.57 308.78 495.64 310.09 496.72 310.21 497.68 312.69 499.46 313.63 499.54 314.66 500.56 315.68 501.76 315.9 503.12 317.13 505.11 316.84 507.99 317.51 509.68 317.22 510.45 318.76 511.47 319.19 513.99 318.54 517.89 319.51 519.35 319.58 520.49 320.68 522.89 321.02 523.8 320.74 524.36 322.08 525.38 322.06 528.01 322.99 529.18 323.06 529.66 324.86 531.58 325.5 532.92 325.25 534.37 327.3 537.02 327.61 537.95 326.8 539.92 327.2 546.85 327.9 548.77 327.09 551.04 325.05 552.08 324.77 553.71 323.13 555.62 322.92 556.37 322.27 557.96 322.94 560.58 323.49 563.01 324.83 565.06 325.58 566.15 324.86 567.93 325.68 567.43 327.18 568.93 327.85 569.75 328.88 571.8 327.02 574.84 328.64 577.21 329.46 576.99 330.57 578.39 333.14 579.57 333.58 580.31 336.08 582.46 338.93 584.49 339.53 586.25 339.33 588.74 339.58 593.05 339.66 597.03 341.43 600.56 342.67 603.79 344.69 605.69 346.34 608.29 347.97 608.72 349.29 606.98 350.61 605.28 350.77 605.22 351.87 602.08 350.75 599.26 348.76 600.83 351.2 604.73 352.95 605.56 353.06 607.47 354.71 609.85 352.88 612.53 352.55 614.04 353.21 616.67 353.11 619.08 353.87 619.94 352.73 620.78 350.36 623.81 350.49 625.24 350.92 628.05 352.39 630.15 352.37 630.48 354.12 632.72 355.45 632.89 356.36 634.09 356.83 634.19 357.84 637.37 357.51 637.49 359.53 635.34 362.06 636.99 362.74 637.91 361.92 639.84 363.34 637.49 366.15 639.52 366.89 639.48 368.75 640.41 369.55 640.93 371.02 642.16 370.78 644.78 371.71 645.43 370.91 647.63 371.58 649 371.4 651.07 371.72 652.44 370.1 655.64 369.6 656.03 370.6 658.12 371.27 661.67 369.52 662.98 370 663.96 369.37 665.14 369.67 666.42 371.57 668.66 369.48 670 369.58 670.48 368.77 672.51 366.91 672.33 364.96 673.6 364.24 673.9 365.87 674.66 366.77 676.3 367.61 677.73 367.24 679.68 369.53 680.38 370.91 681.59 369.9 682.55 370.69 682.53 373.7 681.5 375.05 680.4 375.71 679.85 377.73 679.2 378.09 680.18 380.26 679.65 382.13 680.53 383.27 678.71 384.67 677.97 385.79 676.46 386.71 674.74 387.07 673.03 389.41 673.22 389.92 671.88 391.51 Z" id="Madesh"/>
<path d="M 608.72 349.29 608.29 347.97 605.69 346.34 603.79 344.69 600.56 342.67 597.03 341.43 593.05 339.66 588.74 339.58 586.25 339.33 584.49 339.53 582.46 338.93 580.31 336.08 579.57 333.58 578.39 333.14 576.99 330.57 577.21 329.46 574.84 328.64 571.8 327.02 569.75 328.88 568.93 327.85 567.43 327.18 567.93 325.68 566.15 324.86 565.06 325.58 563.01 324.83 560.58 323.49 557.96 322.94 556.37 322.27 555.62 322.92 553.71 323.13 552.08 324.77 551.04 325.05 548.77 327.09 546.85 327.9 539.92 327.2 537.95 326.8 537.02 327.61 534.37 327.3 532.92 325.25 531.58 325.5 529.66 324.86 529.18 323.06 528.01 322.99 525.38 322.06 524.36 322.08 523.8 320.74 522.89 321.02 520.49 320.68 519.35 319.58 517.89 319.51 513.99 318.54 511.47 319.19 510.45 318.76 509.68 317.22 507.99 317.51 505.11 316.84 503.12 317.13 501.76 315.9 500.56 315.68 499.54 314.66 499.46 313.63 497.68 312.69 496.72 310.21 495.64 310.09 494.57 308.78 494.22 306.42 493.8 305.99 490.83 305.53 488.76 306.34 488.32 306.03 485.71 306.78 485.19 305.55 483.33 305.93 482.56 306.56 477.57 305.03 475.2 303.67 473.77 303.36 473.39 302.54 470.73 302.29 469.99 300.99 468.97 300.43 467.19 300.3 464.78 298.46 460.68 298.48 458.42 297.79 457.74 298.82 453 299.31 451.61 298.96 450.64 299.28 450.29 297.97 448.82 297.18 443.72 296.87 442.66 295.97 441.92 296.44 441.75 298.09 440.95 299.54 439.61 300.94 440.1 303.59 436.67 304.01 434.69 305.48 434.89 306.22 433.29 306.55 430.78 305.26 428.85 304.91 425.6 305.25 423.81 304.45 422.2 304.76 418.39 303.91 416.72 303.1 415.82 303.6 414.27 302.05 414.62 301.48 413.98 299.34 412.62 298.36 412.18 297.05 409.97 296.64 407.69 297.97 407.27 296.27 407.48 295.36 404.08 294.74 401.54 293.1 402.06 290.7 400.88 290.61 399.4 291.28 398.7 290.47 397.53 290.34 396.64 293.35 393.95 294.69 393.28 296.76 392.34 297.98 390.35 298.1 389.9 298.87 386.49 297.82 382.02 298.12 380.53 297.3 381.84 295.71 381.24 293.5 381.5 292.96 383.99 291.75 383.83 290.09 382.46 289.77 381.58 290.82 379.62 290.59 379.43 288.33 380.64 287.92 382.17 288.43 384.25 287.41 386.48 288.1 388.06 288.05 389.76 288.72 390.84 288.57 391.75 287.06 393.58 287.33 394.58 286.53 397.78 287.29 399.58 285.88 400.52 284.07 404.38 280.82 407.45 278.8 411.84 277.25 412.38 277.56 413.75 276.43 415.92 275.86 418.69 274.29 419.6 273.1 421.44 272.45 422.8 273.2 424.32 274.59 427.27 273.11 429.21 272.4 429.48 271.47 428.63 268.71 430.25 268.44 431.35 266.98 432.81 267.55 433.07 266.18 432.35 265.49 430.32 265.07 429.41 263.88 429.62 261.75 430.96 260.69 432.83 261.11 433.75 260.65 437.51 261.45 438.72 259.69 440.75 259.85 441.68 259.45 442.03 257.28 443.81 256.67 443.81 256.01 445.09 255.15 447.35 255.84 448.75 255.4 449.59 257.07 452.02 258.16 452.08 260.15 452.74 261.15 454.4 261.95 457.75 262.62 458.99 263.39 459.65 262.58 460.82 262.46 462.2 261.14 463.2 262.13 463.9 261.42 463.09 260.59 463.31 259.5 462.49 258.67 462.11 257.07 461.18 256.56 460.66 254.49 459.46 254.02 459.11 250.46 460.43 247.23 462.65 246.57 464.11 245 464.76 243.54 466.78 243.08 466.95 241.16 466.6 239.97 467.48 238.65 470.02 231.93 471.03 231.34 472.47 231.56 474.73 233.57 475.48 232.92 477.07 233.29 478.29 230.98 479.63 231.35 481.07 230.9 481.15 228.87 481.75 225.97 482.66 224.83 481.55 222.51 485.35 218.63 487.91 217.73 488.99 214.76 488.48 213.75 489.84 211.43 493.16 209.47 495.85 209.4 497.11 210.46 497.88 210.23 499.28 210.89 501.62 210.86 503.13 211.56 505.27 210.04 508.93 212.22 510.24 214.5 511.38 214.15 512.02 215.16 513.98 215.18 516.91 214.35 518.57 213.58 519.39 213.79 519.4 215.09 521.34 215.32 522.26 216.05 523.68 215.09 525.68 213.09 525.98 211.3 528.41 210.5 530.15 210.33 533.37 210.9 534.91 210.63 536.82 211.18 538.9 212.45 540.37 213.01 543.39 213.13 543.97 216 544.92 218.19 547.68 216.39 548.49 214.96 550.02 213.67 549.33 212.35 550.38 210.85 550.59 209.2 552.52 209.36 552.34 205.85 555 205.51 555.82 208.13 557.03 210.11 556.62 211.21 557.52 212.07 557.12 214.85 558.05 216.67 558.09 218.19 558.61 219.81 559.46 220.93 561.28 222.16 561.36 222.92 563.67 224.11 565.3 223.51 565.44 224.36 566.59 225.26 568.43 225.31 568.7 226.98 570.76 229.35 570.54 231.23 572.38 231.93 573.28 232.67 573.77 234.71 573.13 236.04 573.61 238.12 574.93 238.52 576.98 241 578.99 242.14 579.79 243.15 580.72 243.24 581.15 244.55 579.33 246.54 578.2 249.04 580.1 249.97 581.56 251.09 583.57 252.05 584.62 251.68 585.36 252.33 589.62 253.19 590.52 252.1 592.14 251.2 595.42 250.45 595.39 249.09 594.58 248.7 593.97 247.47 593.01 244.05 591.27 241.92 591.07 241.2 592.14 240.11 591.86 236.12 591.41 234.41 592.3 233.78 594.82 234.41 596.06 233.51 596.24 231.93 598.98 229.84 600.65 229.36 600.33 226.81 601.57 226.29 602.1 227.05 602.6 229.81 603.36 230.28 604.66 232.11 605.08 233.98 603.83 234.03 603.29 235.17 604.75 239.74 605.36 240.5 604.83 242.29 605.49 245.23 606.54 246 609.38 245.28 611.57 245.48 612.64 247.16 614.51 248.47 616.14 246.78 616.36 248.32 617.41 249.48 618.31 249.11 620.64 249.45 621.58 250.63 623 251.53 623.53 252.52 625.34 252.23 626.63 252.6 629.32 250.22 628.98 249.11 632.05 247.56 633.8 247.61 634.6 249.26 635.65 249.08 636.96 250.18 637.51 252 637.63 254.58 637.3 255.29 637.57 257.36 636.23 261.51 638.85 262.57 639.02 263.42 638.54 265.86 639.4 267.41 638.44 267.93 637.27 271.7 636.22 272.61 636 275.67 634.94 276.73 634.84 277.62 632.96 278.62 632.26 280.57 631.54 281.22 629.3 280.89 625.88 281.56 624.42 282.73 624.23 283.41 622.3 284.2 621.27 285.26 620.15 285.69 619.6 287.27 618.41 288.47 618.06 289.93 616.42 290.4 614.2 293.1 612.22 294.4 611.9 295.24 609.15 296.63 608.35 298.67 606.91 300.38 606.35 301.8 605.59 302.37 605.3 305.05 604.76 305.83 604.41 308.64 604.73 309.7 605.66 309.99 606.59 311.72 606.81 313.11 603.99 315.51 603.3 316.9 605.73 318.1 608.32 316.54 608.46 316.1 613.27 318.12 614.23 318.68 616.69 318.92 616.59 320.77 617.08 321.56 618.43 321.65 619.41 322.49 620.52 322.53 621.48 323.73 620.33 325.14 619.35 327.56 616.71 327.16 615.68 329.88 615.07 330.59 618.05 331.15 618.38 333.13 617.27 335.04 618.89 336.1 619.22 337.67 620.45 338.28 619.93 339.12 619.84 341.01 619 343.43 617.86 344.83 614.29 344.92 610.83 346.54 610.36 347.91 609.19 348.4 608.72 349.29 Z" id="Bagmati"/>
<path d="M 99.86 204.7 99.06 203.33 99.69 201.96 101.68 200.4 102.14 198.58 104.09 198.02 104.52 197.05 106 196.1 108.23 194.18 108.96 194.22 109.67 192.08 113.31 188.63 115.97 186.82 117.63 185.14 119.79 181.66 121.46 179.8 121.22 177.38 124.46 177.73 124.8 178.33 123.67 179.55 124.32 180.99 127.23 182.15 128.79 182.2 130.44 183.35 132.54 183.88 134.11 185 135.58 186.98 135.86 188.27 136.91 189.04 138.97 189.14 139.74 190.24 140.9 190.52 143.39 191.93 143.85 193.03 145.25 193.46 146.42 194.84 147.88 194.85 149.61 196.49 151.32 197.4 152.86 198.92 154.64 199.8 157.83 202.67 159.34 202.43 160.72 203.13 162.06 204.78 164.76 206.24 168.4 207.09 166.92 209.68 166.87 210.93 166.13 212.1 167.13 213.23 170.49 214.61 171.01 216.51 172.24 215.68 175.96 216.73 178.02 218.97 177.91 220 179.79 219.5 181.09 220.48 183.31 221.13 185.22 220.62 186.68 219.12 184.63 216.95 185.75 215.61 187.34 216.34 187.51 217.24 189.17 218.88 187.67 219.64 188.6 221.56 190.55 221.74 192.93 223.66 194.84 222.3 195.42 220.78 196.59 219.63 198.08 219.92 199.23 219 200.23 218.94 201.14 217.98 202.81 218.71 203.69 218.44 205.27 219.73 207.03 219.67 207.77 218.73 210.21 219.14 210.72 219.55 212.52 218.91 214.12 219.84 216.42 219.84 218.26 219.01 220.8 219.46 220.92 220.59 221.93 221.49 224.35 221.45 225.18 222.16 227.24 224.76 228.38 225.27 230.53 224.49 231.16 221.7 232.39 220.82 234.04 219.08 231.77 218.48 230.81 217.66 230 215.63 228.83 214.74 228.03 212.36 227.25 211.52 226.86 209.96 228.44 208.89 228.86 206.82 226.9 205.31 227.09 203.91 225.85 203.04 225.68 201.82 227.45 201.6 228.2 201.09 227.9 199.43 230.13 198.09 231.61 195.08 231.2 194 232.28 191.56 233.42 191.95 236.33 192.3 239.38 190.63 239.5 189.2 241.15 189.34 242.85 188.66 243.75 187.41 245.55 186.36 246.82 186.74 248.2 185.81 248.16 183.34 246.27 183.57 243.02 182.14 242.07 182.15 238.87 180.58 239.28 178.75 240.34 178.25 242.38 178.74 244.06 179.94 246.21 180 247.99 178.23 250.05 177.66 250.29 176.1 251.5 175.85 251.57 173.82 250.63 173.3 250.2 170.56 247.61 170.79 246.68 170.11 246.54 168.32 248.72 166.76 249.25 165.78 252.03 163.86 251.41 162.36 252.62 161.12 252.49 160.37 254.83 158.18 256.49 159.68 257.28 159.81 259.44 158.62 261.05 159.91 263.96 160.47 264.71 161.97 266.48 164 267.85 162.6 269.6 162.93 271.34 161.89 273.86 162.36 276.35 161.62 277.9 162.31 279.28 162.46 279.94 161.79 282.02 162.26 284.33 162.24 285.91 162.96 286.89 164.61 289.01 164.58 291.24 165.72 292.8 165.67 293.74 166.28 296.04 166.89 296.68 166.41 298.89 168.23 299.31 169.51 300.54 170.53 302.24 170.05 303.52 170.14 303.25 171.42 304.21 174.65 303.22 175.76 303.6 176.57 301.52 178.29 300.55 180.38 300.51 181.54 298.79 181.11 297.19 182.05 294.9 182.59 293.46 181.62 291.14 182.43 289.07 182.25 287.59 181.54 286.04 183.05 285.08 183.43 284.64 184.64 285.57 186.34 287.86 187.51 287.32 189.42 286.7 190.21 285.35 189.28 282.25 187.78 281.06 188.05 280.63 190.16 280.84 191.66 278.99 192.83 278.33 193.71 278.72 194.7 280.02 195.96 277.44 196.68 278.13 199.02 279.37 199.46 280.86 200.8 281.69 204.04 282.98 203.95 284.4 205.71 284.83 208.06 287.31 208.14 288.63 208.92 289.6 210.71 292.58 211.83 293.53 211.55 295.26 212.22 296.01 213.62 297.58 215 298.82 216.53 298.5 218.17 300.2 218.67 301.61 218.21 302.51 218.71 304.49 216.83 305.69 218.07 307.44 216.88 311.42 220.32 312.18 221.62 313.94 222.37 314.65 223.71 316.11 224.98 319.44 223.99 320.29 224.7 321.69 224.83 323.61 224.29 324.81 224.53 325.52 225.92 326.92 227.31 329.57 229.24 331.07 231.01 332.26 230.52 336.14 230.61 335.73 231.69 337.2 232.24 338.84 231.02 341.43 231.93 342.61 231.51 343.61 231.92 344.36 234.1 345.68 234.83 344.06 239.09 344.3 239.86 347.14 240.88 348.55 242.18 348.39 243.63 346.5 244.63 345.79 245.88 342.8 246.17 340.5 246.89 338.28 245.62 336.4 245.28 334.58 247.8 332.79 248.71 332.42 249.71 333.18 250.35 334.4 249.79 336.69 250.94 338.39 250.51 339.87 249.5 340.53 250.29 347.38 250.1 348.03 250.84 349.72 250.16 351.25 251.71 351.33 253.15 353.45 252.92 354.52 251.22 355.48 250.47 356.5 251.38 358.96 251.53 359.56 251.19 362.06 253.14 362.25 252.38 363.97 252.18 365.22 252.83 366.61 254.63 368.41 255.79 369.64 255.36 371.52 256.23 373.59 255.67 373.76 254.83 375.53 254.38 378.46 255.1 378.82 255.99 379.99 256.27 381.06 255.36 382.53 256.15 383.18 255.8 385.4 256.53 386.71 256.47 387.06 257.47 388.83 257.92 389.88 260.05 389.69 261.17 388.75 261.81 388.48 262.84 387.31 264.06 386.52 267.51 385.89 268.05 384.43 267.88 381.87 268.43 379.33 269.86 374.44 269.36 372.73 269.5 371.99 270.11 372.2 271.83 370.96 271.39 369.73 271.71 367.81 270.67 365.94 270.3 363.39 270.78 360.15 271.78 359.36 271.26 356.18 270.98 356.86 272.94 358.3 274.51 357.5 276.38 358.45 276.79 360.34 275.46 362.26 276.01 367.64 276.14 368.83 276.45 368.35 277.88 368.62 279.11 368.17 280.52 366.74 282.06 369.04 283.61 369.99 283.34 371.21 283.96 371.69 285.09 370.77 285.92 371.32 287.31 372.64 286.58 373.39 287.87 374.5 288.26 375.78 290.07 375.08 291.32 377.2 292.34 374.99 293.37 376.01 294.22 375.87 295.89 376.4 297.9 377.03 298.46 374.47 299.25 375.07 301.58 374.84 302.94 377.98 303.16 378.08 303.93 376.55 305.92 373.82 307.39 370.61 305.07 349.52 295.34 327.38 294.35 328.45 295.93 328.34 297.35 326.9 298.01 328.06 299.95 329.19 300.68 328.81 301.95 326.96 303.18 327.32 304.48 326 305.1 325.94 306.21 324.33 307.05 323.84 307.98 322.35 308.74 320.5 308.44 319.14 308.88 318.12 308.54 316 306.8 315.3 305.53 315.95 303.76 312.81 301.53 311.43 301.01 309.9 299.77 307.68 296.83 305.39 296.51 296.61 296.98 292.62 297.37 291.22 296.88 284.78 295.5 283.86 294.61 283.35 293.21 282.36 292.24 277.49 292.49 272.9 292.16 269.86 292.7 268.23 292.34 263.38 292.11 263.47 290.59 264.72 290.12 263.62 287.38 265.24 283.6 263.4 281.77 263.13 280.78 263.58 278.67 262.87 277.44 261.16 276.38 261.66 273.99 260.57 272.83 260.46 271.45 259.82 270.62 258.82 271.28 256.59 271.23 251.93 272.52 250.56 272.18 249.45 273.06 248.59 272.9 244.3 274.16 241.88 273.7 237.65 275.06 235.25 274.85 230.64 272.49 228.72 270.74 227.25 268.58 224.26 267.39 221.05 265.64 216.04 261.97 213.86 260.92 211.71 258.75 208.62 257.6 206.4 256.49 205.98 257.27 203.36 256.59 202.45 255.34 200.23 253.68 198.23 250.94 193.77 250.7 190.41 250.29 188.16 250.32 185.2 253.77 183.94 255.56 184.03 257.1 181.68 257.69 180.05 257.37 178.14 255.61 173.74 252.82 172.13 252.77 161.7 244.51 156.33 243.96 153.96 242.51 149.66 240.31 146.9 238.54 140.15 235.27 140.29 232.57 140.7 231.77 137.36 229.55 136.96 227.55 133.92 226.28 131.48 226.33 130.03 226.01 129.22 227.15 130.23 227.8 129.65 229.4 126.04 229.62 124.7 230.24 124.47 225.48 124.69 224.03 122.63 221.81 121.3 220.96 116.07 215.04 116.25 211.54 113.91 208.02 102.02 205.91 99.86 204.7 Z" id="Lumbini"/>
<path d="M 121.22 177.38 120.74 175.12 119.43 174.15 119.94 172.08 118.36 171.82 118.7 169.85 117.47 168.72 117.83 167.85 117.34 166.73 116.09 166.35 115.42 165.25 116.69 164.66 115.9 163.43 116.17 162.07 115.25 161.15 112.86 159.91 112.39 161.72 113.37 162.3 113.36 163.24 111.08 162.5 110.33 161.53 108.22 161.92 108.72 160.66 107.88 159.8 107.47 158.01 106.52 157.98 105.56 159.93 103.24 160.53 102 158.8 100.58 158.71 100.51 157.6 98.91 157.75 97.23 156.27 95.38 153.25 91.92 151.77 91.53 151.1 93.13 149.78 95.12 150.04 97.98 147.52 99.57 148.26 105.09 149.02 106.46 150.54 107.15 150.68 109.8 153.06 111.26 153.68 112.29 153.56 113.27 154.37 116.45 154.57 117.93 153.82 119.02 154.93 121.35 152.92 122.97 152.67 124.2 153.16 125.03 154.37 126.02 154.35 126.48 155.58 127.47 156.14 130.12 155.78 132.06 154.29 133.79 153.79 135.48 154.1 136.4 155.1 138.67 155.69 138.56 157.6 139.06 158.82 138.62 159.67 141.09 160.8 142.09 162.88 144.02 164.27 143.78 166.88 145.06 167.53 145.7 168.77 144.45 170.03 146.29 170.02 149.93 169.32 150.04 166.85 147.84 165.2 147.33 163.38 145.99 161.42 145.37 159.43 143.89 157.81 143.08 156.12 142.04 156.11 140.58 154.82 138.98 152.33 137.94 152.11 136.76 151.07 136.85 149.69 135.5 149.43 134.68 148.17 134.89 147.24 133.89 145.85 134.33 144.94 133.97 143.68 134.96 143.11 136.26 141.5 136.79 140.09 139.11 138.62 139.21 137.76 142.21 136.46 143.23 136.47 144.68 135.09 145.77 134.93 148.24 133.11 145.64 131.87 144.68 130.39 142.17 130.49 141.8 128.81 140.97 128.12 141.28 127.07 140.52 125.64 140.95 123.26 142.09 121.95 140.99 119.55 139.15 118.71 140.68 117.96 142.26 116.22 143.04 114.53 144.6 114.48 145.1 113.4 146.98 112.11 147.2 111.1 149.17 111.09 149.43 110 153.78 109.04 155.81 109.93 156.38 110.63 156.17 112.58 156.8 113.88 158.93 114.3 160.97 113.94 162.18 112.96 165.75 112.63 167.01 110.83 166.73 109.44 168.42 107.1 170.62 107.23 171.45 105.43 171.57 103.3 172.2 102.3 172.47 100.64 172.02 98.75 169.99 96.13 169.2 95.57 171.57 90.56 171.53 88.91 170.65 86.89 169.09 85.99 165.64 85.95 163.85 84.92 162.14 82.91 161.6 78.68 162.71 76.73 163.33 74.41 164.46 73.51 165.76 67.69 169.74 66.27 170.01 63.39 171.09 62.17 171.3 58.1 171.59 56.99 170.25 56.14 165.19 56.4 162.92 55.76 162.83 54.58 161.62 54.07 161.55 52.98 160.62 52.33 158.99 53.17 156.6 52.46 154.67 53.4 153.33 52.92 152.32 54.2 150.77 53.63 149.14 53.88 147.19 54.85 145.68 54.46 143.88 54.96 143.9 56.77 141.55 58.42 139.39 58.16 138.03 57.11 138.51 55.85 138.2 52.98 137.63 52.14 139.19 50.92 139.33 49.8 137.8 47.12 135.43 46.62 133.7 45.53 131.5 45.7 130.69 46.65 128.25 46.33 127.21 45.52 124.47 44.84 121.16 43.68 119.91 42.92 120.68 40.89 121.43 40.52 121.6 38.07 121.16 35.94 119.96 34.29 118.46 33.27 118.56 32.53 123.58 31.61 124.3 32.47 125.81 32.34 126 31.64 127.62 29.91 129.55 29.07 129.93 28.12 132.11 26.88 131.51 24.46 132 22.72 133.32 21.72 133.96 19.51 132.64 19.74 132.66 18.62 134.74 17.46 133.91 16.35 132.13 15.69 133.02 14.39 133.03 12.69 132.21 11.04 134.43 11.04 135.33 9.82 133.63 8.79 132.6 8.59 133.28 6.07 136.31 6.34 138.88 7.72 139.89 9.23 141.07 9.92 143.47 10.17 145.53 10.93 146.82 10.88 147.36 7.61 148.1 7.4 148 5.84 148.6 5.24 150.84 6.42 152.73 6.97 154.22 5.64 153.76 4.02 155.44 3.76 159.15 5.45 160.81 5.66 163.27 7 164.73 7.26 164.97 8.33 166.87 9.26 169.12 9.69 170.76 9.24 172.53 9.41 174.19 10.59 176.94 10.18 178.3 10.38 179.72 12 183.05 13.06 185.3 13.31 186.3 12.18 187.34 12.74 187.05 13.94 191.08 15.93 192.43 15.02 192.38 13.78 194.25 14.27 195.32 13.95 196.75 14.67 197.72 12.53 199.27 12.09 200.23 12.9 201.55 13.1 202.89 15.33 203.56 17.78 202.65 18.57 202.07 20.34 202.74 22.11 201.76 22.41 200.91 23.91 202.31 25.32 203.66 25.18 204.34 25.99 204.26 27.07 205.17 28 206.82 28.81 208.8 28.5 209.59 29.15 209.14 31.61 211.4 32.28 210.6 33.96 209.59 34.25 208.59 35.38 209.38 36.54 208.62 38.64 207.55 39.9 208.11 40.97 209.7 40.53 213.94 40.99 215.18 39.97 217.33 41.28 219 41.52 219.22 42.73 221.17 43.69 224.01 42.76 225 44.43 226.03 44.84 226.84 46.34 229.77 44.95 232.5 46.95 233.62 48.43 235.76 49.38 237.93 49.94 237.7 50.76 240.19 52.65 241.74 51.96 243.14 50.2 246.45 51.75 246.8 53.98 248.09 55.05 250.91 58.68 253.07 59.34 254.23 60.08 254.04 60.79 252.2 62.32 252.02 63.22 253.91 63.64 258.31 62.36 259.59 61.53 260.9 63.15 262.27 63.28 263.09 65.24 262.7 66.59 261.14 67.51 259.29 67.82 259.49 68.74 258.54 69.56 259.64 70.71 260.94 70 264.25 69.95 265.46 70.67 266.41 72.6 266.03 73.7 269.43 74.89 271.42 74.69 271.13 76.21 272.26 77.75 273.45 77.56 275.61 78.27 279.28 76.5 280.93 76.13 282.84 76.32 284.21 77.58 283.48 79.29 285.07 80.45 287.93 79.88 290.64 80.63 291.61 81.63 292.94 81.7 293.52 83.53 295.7 84.02 296.06 85.58 297.3 85.93 299.6 84.75 302.14 84.8 303.19 84.12 305.45 85.02 304.84 86.74 306.45 87.31 307.73 86.8 308.56 85.47 310.63 86.02 310.29 87.61 311.91 88.49 314.83 88.75 315.71 89.68 315.45 90.8 314.18 91.98 315.61 94.19 315.4 95.04 316.91 96.48 318.02 95.93 318.9 96.38 320.22 95.48 323.11 96.92 323.34 98.46 322.82 99.7 324.74 101.08 325.67 103.36 326.52 103.85 329.91 104.17 330.78 107.44 329.99 108.5 329.95 110.17 332.87 112 333.03 113.1 332.21 115.06 332.75 115.98 335.4 118.52 336.19 117.81 337.64 118.61 337.41 119.36 339.65 120.48 340.25 124.07 341.8 125.38 343.4 125.74 344.46 125.16 345.33 125.51 345.12 126.69 345.97 127.83 346.95 128.25 349.13 127.67 349.51 128.56 351.34 129.83 352.36 129.38 353.69 128.1 354.51 128.81 354.27 130.1 355.56 130.92 355.79 133.1 354.2 133.13 353.13 133.64 352.6 135.15 350.89 134.92 349.54 136.11 351.11 137.51 351.11 139.24 350.07 139.43 349.93 140.87 349.3 141.82 349.68 143.54 349.54 146.56 347.92 146.75 346.76 147.72 346.01 149.76 342.18 153.69 341.07 154.31 339.76 156.14 338.22 157.39 338.89 159.3 338.07 160.78 336.47 160.58 336.32 163.28 337.1 164.88 336.65 166.64 334.46 166.91 333.75 167.68 329.49 168.82 327.34 168.58 325.95 170.4 324.74 171.41 321.73 171.02 318.52 171.63 316.41 172.61 312.73 171.34 311.74 170.56 309.49 171.57 307.52 170.48 303.52 170.14 302.24 170.05 300.54 170.53 299.31 169.51 298.89 168.23 296.68 166.41 296.04 166.89 293.74 166.28 292.8 165.67 291.24 165.72 289.01 164.58 286.89 164.61 285.91 162.96 284.33 162.24 282.02 162.26 279.94 161.79 279.28 162.46 277.9 162.31 276.35 161.62 273.86 162.36 271.34 161.89 269.6 162.93 267.85 162.6 266.48 164 264.71 161.97 263.96 160.47 261.05 159.91 259.44 158.62 257.28 159.81 256.49 159.68 254.83 158.18 252.49 160.37 252.62 161.12 251.41 162.36 252.03 163.86 249.25 165.78 248.72 166.76 246.54 168.32 246.68 170.11 247.61 170.79 250.2 170.56 250.63 173.3 251.57 173.82 251.5 175.85 250.29 176.1 250.05 177.66 247.99 178.23 246.21 180 244.06 179.94 242.38 178.74 240.34 178.25 239.28 178.75 238.87 180.58 242.07 182.15 243.02 182.14 246.27 183.57 248.16 183.34 248.2 185.81 246.82 186.74 245.55 186.36 243.75 187.41 242.85 188.66 241.15 189.34 239.5 189.2 239.38 190.63 236.33 192.3 233.42 191.95 232.28 191.56 231.2 194 231.61 195.08 230.13 198.09 227.9 199.43 228.2 201.09 227.45 201.6 225.68 201.82 225.85 203.04 227.09 203.91 226.9 205.31 228.86 206.82 228.44 208.89 226.86 209.96 227.25 211.52 228.03 212.36 228.83 214.74 230 215.63 230.81 217.66 231.77 218.48 234.04 219.08 232.39 220.82 231.16 221.7 230.53 224.49 228.38 225.27 227.24 224.76 225.18 222.16 224.35 221.45 221.93 221.49 220.92 220.59 220.8 219.46 218.26 219.01 216.42 219.84 214.12 219.84 212.52 218.91 210.72 219.55 210.21 219.14 207.77 218.73 207.03 219.67 205.27 219.73 203.69 218.44 202.81 218.71 201.14 217.98 200.23 218.94 199.23 219 198.08 219.92 196.59 219.63 195.42 220.78 194.84 222.3 192.93 223.66 190.55 221.74 188.6 221.56 187.67 219.64 189.17 218.88 187.51 217.24 187.34 216.34 185.75 215.61 184.63 216.95 186.68 219.12 185.22 220.62 183.31 221.13 181.09 220.48 179.79 219.5 177.91 220 178.02 218.97 175.96 216.73 172.24 215.68 171.01 216.51 170.49 214.61 167.13 213.23 166.13 212.1 166.87 210.93 166.92 209.68 168.4 207.09 164.76 206.24 162.06 204.78 160.72 203.13 159.34 202.43 157.83 202.67 154.64 199.8 152.86 198.92 151.32 197.4 149.61 196.49 147.88 194.85 146.42 194.84 145.25 193.46 143.85 193.03 143.39 191.93 140.9 190.52 139.74 190.24 138.97 189.14 136.91 189.04 135.86 188.27 135.58 186.98 134.11 185 132.54 183.88 130.44 183.35 128.79 182.2 127.23 182.15 124.32 180.99 123.67 179.55 124.8 178.33 124.46 177.73 121.22 177.38 Z" id="Karnali"/>
<path d="M 380.53 297.3 378.33 298.25 377.03 298.46 376.4 297.9 375.87 295.89 376.01 294.22 374.99 293.37 377.2 292.34 375.08 291.32 375.78 290.07 374.5 288.26 373.39 287.87 372.64 286.58 371.32 287.31 370.77 285.92 371.69 285.09 371.21 283.96 369.99 283.34 369.04 283.61 366.74 282.06 368.17 280.52 368.62 279.11 368.35 277.88 368.83 276.45 367.64 276.14 362.26 276.01 360.34 275.46 358.45 276.79 357.5 276.38 358.3 274.51 356.86 272.94 356.18 270.98 359.36 271.26 360.15 271.78 363.39 270.78 365.94 270.3 367.81 270.67 369.73 271.71 370.96 271.39 372.2 271.83 371.99 270.11 372.73 269.5 374.44 269.36 379.33 269.86 381.87 268.43 384.43 267.88 385.89 268.05 386.52 267.51 387.31 264.06 388.48 262.84 388.75 261.81 389.69 261.17 389.88 260.05 388.83 257.92 387.06 257.47 386.71 256.47 385.4 256.53 383.18 255.8 382.53 256.15 381.06 255.36 379.99 256.27 378.82 255.99 378.46 255.1 375.53 254.38 373.76 254.83 373.59 255.67 371.52 256.23 369.64 255.36 368.41 255.79 366.61 254.63 365.22 252.83 363.97 252.18 362.25 252.38 362.06 253.14 359.56 251.19 358.96 251.53 356.5 251.38 355.48 250.47 354.52 251.22 353.45 252.92 351.33 253.15 351.25 251.71 349.72 250.16 348.03 250.84 347.38 250.1 340.53 250.29 339.87 249.5 338.39 250.51 336.69 250.94 334.4 249.79 333.18 250.35 332.42 249.71 332.79 248.71 334.58 247.8 336.4 245.28 338.28 245.62 340.5 246.89 342.8 246.17 345.79 245.88 346.5 244.63 348.39 243.63 348.55 242.18 347.14 240.88 344.3 239.86 344.06 239.09 345.68 234.83 344.36 234.1 343.61 231.92 342.61 231.51 341.43 231.93 338.84 231.02 337.2 232.24 335.73 231.69 336.14 230.61 332.26 230.52 331.07 231.01 329.57 229.24 326.92 227.31 325.52 225.92 324.81 224.53 323.61 224.29 321.69 224.83 320.29 224.7 319.44 223.99 316.11 224.98 314.65 223.71 313.94 222.37 312.18 221.62 311.42 220.32 307.44 216.88 305.69 218.07 304.49 216.83 302.51 218.71 301.61 218.21 300.2 218.67 298.5 218.17 298.82 216.53 297.58 215 296.01 213.62 295.26 212.22 293.53 211.55 292.58 211.83 289.6 210.71 288.63 208.92 287.31 208.14 284.83 208.06 284.4 205.71 282.98 203.95 281.69 204.04 280.86 200.8 279.37 199.46 278.13 199.02 277.44 196.68 280.02 195.96 278.72 194.7 278.33 193.71 278.99 192.83 280.84 191.66 280.63 190.16 281.06 188.05 282.25 187.78 285.35 189.28 286.7 190.21 287.32 189.42 287.86 187.51 285.57 186.34 284.64 184.64 285.08 183.43 286.04 183.05 287.59 181.54 289.07 182.25 291.14 182.43 293.46 181.62 294.9 182.59 297.19 182.05 298.79 181.11 300.51 181.54 300.55 180.38 301.52 178.29 303.6 176.57 303.22 175.76 304.21 174.65 303.25 171.42 303.52 170.14 307.52 170.48 309.49 171.57 311.74 170.56 312.73 171.34 316.41 172.61 318.52 171.63 321.73 171.02 324.74 171.41 325.95 170.4 327.34 168.58 329.49 168.82 333.75 167.68 334.46 166.91 336.65 166.64 337.1 164.88 336.32 163.28 336.47 160.58 338.07 160.78 338.89 159.3 338.22 157.39 339.76 156.14 341.07 154.31 342.18 153.69 346.01 149.76 346.76 147.72 347.92 146.75 349.54 146.56 349.68 143.54 349.3 141.82 349.93 140.87 350.07 139.43 351.11 139.24 351.11 137.51 349.54 136.11 350.89 134.92 352.6 135.15 353.13 133.64 354.2 133.13 355.79 133.1 355.56 130.92 354.27 130.1 354.51 128.81 353.69 128.1 353.96 125.37 356.32 124.47 358.97 121.39 360.87 121.36 364.49 121.76 367.39 120.85 367.84 120.3 367.07 118.56 368.74 116.86 368.92 115.75 372.48 116.15 373.16 115.04 377.94 113.43 380.16 114.15 382.22 114.28 383.82 112.91 384.9 113.15 387.19 114.51 387.25 116.45 389.65 117.06 391.57 115.88 392.78 116.88 394.14 117.41 395.68 116.49 397.09 116.92 398.69 117.97 399.19 118.86 398.28 120.99 401.14 122.21 402.34 121.7 404.84 122.06 406.15 121.43 406.77 122.72 406.84 124.39 405.03 124.99 403.32 126.34 403.17 127.2 403.86 128.49 403.53 129.27 404.26 130.68 404.54 132.65 406.93 133.16 407.04 135.19 405.51 137.44 405.86 140.76 407.75 140.1 408.91 140.11 411.56 141.7 411.56 144.12 410.74 145.61 410.69 147.2 409.42 151.19 408.87 153.62 409.78 155.91 412.21 156.09 413.34 155.39 414.12 156.46 416.57 157.89 419.87 158.64 421.04 157.89 422.22 159.04 423.99 158.65 427.31 159.7 426.53 161.99 428.26 161.86 429.93 162.94 429.61 164.81 430.91 165.63 430.97 166.67 430.05 167.96 431.56 168.41 432.46 169.75 434.34 170.14 435.24 171.29 437.71 170 438.61 170.48 440.17 170.43 441.32 169.8 443.29 171.31 445.32 171.17 446.63 171.48 448.65 171.18 449.98 172 451.04 173.34 451.03 174.52 452.1 174.88 453.52 176.81 454.71 176.83 456.36 177.63 455.61 179.27 455.95 181.18 457.22 181.33 458.34 182.54 459.52 182.91 463.86 183.66 471.25 187.42 472.07 186.48 474.1 186.26 474.5 185.68 476.49 185.67 477.3 185.05 479.91 185.08 480.27 186.49 482.51 185.86 484.56 184.46 484.18 183.29 485.31 182.28 486.14 180.92 486.95 180.69 489.33 177.83 490.29 177.73 491.01 176.48 493.15 177.55 496.58 176.08 498.26 177.14 498.44 177.92 500.86 180.3 502.55 180.16 503.38 181.4 504.68 181.94 503.82 184.02 502.29 184.81 503.04 186.59 504.04 187.59 503.38 188.45 503.77 189.99 503.45 191.12 501.55 191.21 501.55 192.27 500.64 193.48 500.62 194.62 499.54 195.75 497.47 195.55 495.02 198.59 495.26 199.38 496.47 199.93 496.31 200.89 496.69 203.55 497.51 204.46 497.12 206.97 496.5 207.49 495.85 209.4 493.16 209.47 489.84 211.43 488.48 213.75 488.99 214.76 487.91 217.73 485.35 218.63 481.55 222.51 482.66 224.83 481.75 225.97 481.15 228.87 481.07 230.9 479.63 231.35 478.29 230.98 477.07 233.29 475.48 232.92 474.73 233.57 472.47 231.56 471.03 231.34 470.02 231.93 467.48 238.65 466.6 239.97 466.95 241.16 466.78 243.08 464.76 243.54 464.11 245 462.65 246.57 460.43 247.23 459.11 250.46 459.46 254.02 460.66 254.49 461.18 256.56 462.11 257.07 462.49 258.67 463.31 259.5 463.09 260.59 463.9 261.42 463.2 262.13 462.2 261.14 460.82 262.46 459.65 262.58 458.99 263.39 457.75 262.62 454.4 261.95 452.74 261.15 452.08 260.15 452.02 258.16 449.59 257.07 448.75 255.4 447.35 255.84 445.09 255.15 443.81 256.01 443.81 256.67 442.03 257.28 441.68 259.45 440.75 259.85 438.72 259.69 437.51 261.45 433.75 260.65 432.83 261.11 430.96 260.69 429.62 261.75 429.41 263.88 430.32 265.07 432.35 265.49 433.07 266.18 432.81 267.55 431.35 266.98 430.25 268.44 428.63 268.71 429.48 271.47 429.21 272.4 427.27 273.11 424.32 274.59 422.8 273.2 421.44 272.45 419.6 273.1 418.69 274.29 415.92 275.86 413.75 276.43 412.38 277.56 411.84 277.25 407.45 278.8 404.38 280.82 400.52 284.07 399.58 285.88 397.78 287.29 394.58 286.53 393.58 287.33 391.75 287.06 390.84 288.57 389.76 288.72 388.06 288.05 386.48 288.1 384.25 287.41 382.17 288.43 380.64 287.92 379.43 288.33 379.62 290.59 381.58 290.82 382.46 289.77 383.83 290.09 383.99 291.75 381.5 292.96 381.24 293.5 381.84 295.71 380.53 297.3 Z" id="Gandaki"/>
<path d="M 99.86 204.7 97.77 203.18 96.68 202.85 96.43 204.28 94.91 202.61 96.58 201.42 95.15 201.05 94.55 200.35 94.98 199.1 93.24 198.86 91.22 200.79 89.86 200.45 89.75 199.3 88.54 199.5 87.85 198.79 85.19 198.3 84.03 197.71 83.61 195.74 84.31 194.59 83.08 193.8 81.1 193.4 79.08 194.64 77.93 194.38 75.18 192.33 73.64 192.29 72.15 191.49 72.61 190.09 70.68 189.49 70.53 187.93 67.63 187.08 66.3 187.05 65.3 187.7 62.91 185.82 63.43 184.22 61.65 184.13 61.86 182.55 61 181.78 60.69 180.45 59.09 181.23 58.13 180.32 57.33 180.9 55.2 180.71 54.68 179.42 52.12 178.55 53.12 176.74 51 175.94 48.17 175.67 44.87 177.6 44.61 178.17 45.38 182.23 45.72 183 46.39 186.84 47.26 187.33 46.5 189.18 44.99 187.78 41.5 185.51 40.4 182.44 37.64 180.9 35.91 180.72 32.15 181.78 30.47 180.93 29.9 179.63 27.21 178.05 26.36 174.77 23.73 173.63 22.52 173.8 20.38 171.88 21.25 170.49 19.83 169.09 18.28 168.95 16.44 169.33 12.06 166.71 8.84 163.6 6.84 162.14 2.62 162.57 1.61 161.3 1 153.55 4.68 147.78 5.09 146.68 6.83 147.15 7.7 144.77 7.66 142.25 8.64 139.59 7.86 139.37 9.42 135.26 12.72 132.76 13.36 131.9 15.2 132.68 15.82 133.42 18.32 133.69 20.37 131.72 21.91 130.98 20.59 129.11 20.54 127 18.89 125.35 19.68 123.67 20.91 125.13 22.22 125.07 23.49 126.25 24.41 125.22 23.76 122.63 24.58 121.83 24.6 119.66 25.09 117.4 26.43 115.8 26.28 114.43 24.3 113.58 22.72 111.43 22.58 110.07 21.84 108.79 22.56 108.31 21.9 106.63 18.95 105.02 19.5 102.55 19.38 101.58 24.91 100.95 23.49 99.1 24.27 97.55 25.95 97.88 26.15 96.36 28.71 95.38 30.35 93.17 28.72 92.28 29.5 90.94 32.41 90.33 33.63 88.36 35.27 86.96 35.26 84.6 36.32 83.92 36.08 81.61 35.16 80.77 33.66 80.31 32.84 78.87 32.23 76.52 31.13 73.91 31.34 71.8 33.13 71.72 36.03 67.38 40.81 66.75 43.52 67.41 44.01 65.83 44.98 64.7 46.4 64.31 47.98 62.49 49.51 61.73 49.83 60.14 50.78 59.1 51.39 57.56 51.1 56.28 52.24 53.6 53.6 51.97 57.03 50.77 58.83 51.68 61.7 51.39 62.95 49.84 65.07 48.32 65.78 47.33 67.65 47.39 68.54 46.72 69.56 44.61 69.35 43.43 69.84 42.55 71.65 41.81 73.83 38.97 75.8 37.58 77.2 37.83 78.1 37.33 78.23 35.91 81.38 34.38 80.67 31.61 77.53 28.37 75.42 25.34 73.25 23.99 71.97 21.88 69.9 19.97 69.64 17.76 68.09 17.33 67.25 16.37 65.31 15.06 62.17 14.52 60.55 13.58 60.07 12.76 59.53 10.32 57.85 9.09 56.81 7.29 56.92 6.4 55.22 3.7 54.31 3.33 51.46 4 48.12 6.67 46.76 5.69 47.03 4.62 48.26 3.43 50.1 2.86 50.64 1.89 54.68 1 55.41 2.18 56.36 1.86 57.62 2.98 59.78 3.72 61.72 5.16 62.68 6.43 64.65 6.2 68.3 8.97 68.87 9.83 71.28 11.52 72.78 13.82 73.93 14.4 73.89 15.26 75.52 15.34 76.21 16.17 78.16 15.97 79.8 16.26 80.93 17.59 83.75 17.72 86.47 19.8 86.76 21.28 88.59 20.6 92.23 20.83 94.09 21.62 94.05 22.18 96.4 22.92 95.8 25.13 97.19 26.25 97.73 29.77 99.29 30.91 99.54 31.79 101.41 32.85 100.94 35.17 101.52 36.93 103.26 37.84 103.92 38.92 102.2 42.04 104.8 43.98 105.4 45.37 107.88 46.22 111.3 46.3 112.35 45.12 113.62 45.36 114.57 46.64 117.31 46.26 118.08 45.04 116.53 44.27 119.91 42.92 121.16 43.68 124.47 44.84 127.21 45.52 128.25 46.33 130.69 46.65 131.5 45.7 133.7 45.53 135.43 46.62 137.8 47.12 139.33 49.8 139.19 50.92 137.63 52.14 138.2 52.98 138.51 55.85 138.03 57.11 139.39 58.16 141.55 58.42 143.9 56.77 143.88 54.96 145.68 54.46 147.19 54.85 149.14 53.88 150.77 53.63 152.32 54.2 153.33 52.92 154.67 53.4 156.6 52.46 158.99 53.17 160.62 52.33 161.55 52.98 161.62 54.07 162.83 54.58 162.92 55.76 165.19 56.4 170.25 56.14 171.59 56.99 171.3 58.1 171.09 62.17 170.01 63.39 169.74 66.27 165.76 67.69 164.46 73.51 163.33 74.41 162.71 76.73 161.6 78.68 162.14 82.91 163.85 84.92 165.64 85.95 169.09 85.99 170.65 86.89 171.53 88.91 171.57 90.56 169.2 95.57 169.99 96.13 172.02 98.75 172.47 100.64 172.2 102.3 171.57 103.3 171.45 105.43 170.62 107.23 168.42 107.1 166.73 109.44 167.01 110.83 165.75 112.63 162.18 112.96 160.97 113.94 158.93 114.3 156.8 113.88 156.17 112.58 156.38 110.63 155.81 109.93 153.78 109.04 149.43 110 149.17 111.09 147.2 111.1 146.98 112.11 145.1 113.4 144.6 114.48 143.04 114.53 142.26 116.22 140.68 117.96 139.15 118.71 140.99 119.55 142.09 121.95 140.95 123.26 140.52 125.64 141.28 127.07 140.97 128.12 141.8 128.81 142.17 130.49 144.68 130.39 145.64 131.87 148.24 133.11 145.77 134.93 144.68 135.09 143.23 136.47 142.21 136.46 139.21 137.76 139.11 138.62 136.79 140.09 136.26 141.5 134.96 143.11 133.97 143.68 134.33 144.94 133.89 145.85 134.89 147.24 134.68 148.17 135.5 149.43 136.85 149.69 136.76 151.07 137.94 152.11 138.98 152.33 140.58 154.82 142.04 156.11 143.08 156.12 143.89 157.81 145.37 159.43 145.99 161.42 147.33 163.38 147.84 165.2 150.04 166.85 149.93 169.32 146.29 170.02 144.45 170.03 145.7 168.77 145.06 167.53 143.78 166.88 144.02 164.27 142.09 162.88 141.09 160.8 138.62 159.67 139.06 158.82 138.56 157.6 138.67 155.69 136.4 155.1 135.48 154.1 133.79 153.79 132.06 154.29 130.12 155.78 127.47 156.14 126.48 155.58 126.02 154.35 125.03 154.37 124.2 153.16 122.97 152.67 121.35 152.92 119.02 154.93 117.93 153.82 116.45 154.57 113.27 154.37 112.29 153.56 111.26 153.68 109.8 153.06 107.15 150.68 106.46 150.54 105.09 149.02 99.57 148.26 97.98 147.52 95.12 150.04 93.13 149.78 91.53 151.1 91.92 151.77 95.38 153.25 97.23 156.27 98.91 157.75 100.51 157.6 100.58 158.71 102 158.8 103.24 160.53 105.56 159.93 106.52 157.98 107.47 158.01 107.88 159.8 108.72 160.66 108.22 161.92 110.33 161.53 111.08 162.5 113.36 163.24 113.37 162.3 112.39 161.72 112.86 159.91 115.25 161.15 116.17 162.07 115.9 163.43 116.69 164.66 115.42 165.25 116.09 166.35 117.34 166.73 117.83 167.85 117.47 168.72 118.7 169.85 118.36 171.82 119.94 172.08 119.43 174.15 120.74 175.12 121.22 177.38 121.46 179.8 119.79 181.66 117.63 185.14 115.97 186.82 113.31 188.63 109.67 192.08 108.96 194.22 108.23 194.18 106 196.1 104.52 197.05 104.09 198.02 102.14 198.58 101.68 200.4 99.69 201.96 99.06 203.33 99.86 204.7 Z" id="Sudur Pashchim"/>
</g>
</svg>